
<svg width="32" height="150" viewBox="0 0 65 75" fill="none" xmlns="http://www.w3.org/2000/svg">
<path d="M29.4346 0.372067L2.81117 11.286C1.15754 11.9475 0 13.6011 0 15.4201V57.9184C0 59.7374 0.992179 61.2257 2.64581 61.8872L29.2693 73.6279C30.4268 74.124 31.7497 74.124 32.9073 73.6279L59.5307 62.0525C61.1844 61.3911 62.1765 59.7374 62.1765 58.0838V15.4201C62.1765 13.6011 61.019 11.9475 59.3654 11.286L32.7419 0.372067C31.5844 -0.124022 30.4268 -0.124022 29.4346 0.372067Z" fill="#0B4B36"/>
<path d="M4.79552 58.2492C4.29943 57.9184 3.9687 57.257 3.9687 56.5955V34.1061V24.6804V19.0581C3.9687 18.7274 4.29943 18.3966 4.63016 18.7274L28.9385 28.6492V37.4134L12.2369 30.3028C11.9061 30.1374 11.41 30.3028 11.41 30.7989V51.1385C11.41 51.8 11.7408 52.4614 12.2369 52.7922L28.9385 60.0681V68.5017L4.79552 58.2492Z" fill="white"/>
<path d="M58.2078 57.7531V43.3665V42.8704L56.2235 41.3821C55.8927 41.2168 55.8927 40.7207 56.0581 40.5553L57.8771 39.067C58.0425 39.067 58.0425 38.9017 58.0425 38.7363V25.5073V19.8849C58.0425 19.5542 57.7117 19.2235 57.381 19.3888L46.467 23.6883L38.695 26.8302L33.0726 28.9799V35.429V51.6346V68.667L58.2078 57.9184V57.7531ZM51.5933 40.0592L49.1129 41.8782C48.7821 42.0436 48.9475 42.5397 49.2782 42.705L51.4279 43.6972C51.5933 43.8626 51.7587 44.0279 51.7587 44.1933V52.4614C51.7587 52.6268 51.5933 52.7922 51.5933 52.7922L40.8447 56.9263V34.4369L51.0972 30.1374C51.4279 29.9721 51.7587 30.3028 51.7587 30.6335V39.7285C51.5933 39.8938 51.5933 40.0592 51.5933 40.0592Z" fill="white"/>
<path d="M32.7419 3.34861C31.7497 2.85252 30.4268 2.85252 29.4346 3.34861L5.457 13.105C4.63018 13.4358 4.63018 13.9319 5.457 14.2626L29.4346 23.8536C30.4268 24.3497 31.7497 24.3497 32.7419 23.8536L56.5542 14.2626C57.2157 13.9319 57.2157 13.4358 56.5542 13.2704L32.7419 3.34861Z" fill="#E73607"/>
</svg>
