<?xml version="1.0" standalone="no"?>
<!DOCTYPE svg PUBLIC "-//W3C//DTD SVG 20010904//EN"
 "http://www.w3.org/TR/2001/REC-SVG-20010904/DTD/svg10.dtd">
<svg version="1.0" xmlns="http://www.w3.org/2000/svg"
 width="487.000000pt" height="340.000000pt" viewBox="0 0 487.000000 340.000000"
 preserveAspectRatio="xMidYMid meet">

<g transform="translate(0.000000,340.000000) scale(0.100000,-0.100000)"
fill="#000000" stroke="none">
<path d="M2231 3028 c-11 -34 -11 -139 0 -132 4 2 9 30 12 61 3 32 8 68 12 81
4 13 3 22 -3 22 -6 0 -15 -15 -21 -32z"/>
<path d="M3061 2957 c-13 -34 -36 -83 -52 -108 -35 -56 -36 -59 -4 -59 14 0
49 -12 77 -26 l51 -26 -8 29 c-3 15 -12 31 -18 35 -8 5 -13 43 -14 108 0 56
-3 103 -5 105 -2 2 -14 -24 -27 -58z"/>
<path d="M1766 2948 c-9 -33 -12 -56 -6 -60 6 -5 8 -5 6 -2 -3 3 2 28 10 56 9
27 13 52 11 55 -3 2 -12 -19 -21 -49z"/>
<path d="M2010 2968 c0 -9 5 -20 10 -23 12 -8 13 -42 1 -49 -12 -8 -61 17 -61
32 0 22 -20 13 -30 -14 -14 -37 -13 -41 15 -48 28 -7 83 17 92 40 3 8 -2 29
-11 47 -9 18 -16 25 -16 15z"/>
<path d="M2312 2958 c-15 -15 -16 -45 -2 -53 6 -3 10 -3 11 2 0 4 3 20 5 36 5
30 3 32 -14 15z"/>
<path d="M2148 2938 c-20 -30 -8 -48 30 -48 16 0 22 5 20 16 -2 8 -7 15 -13
14 -5 -1 -12 9 -15 21 l-6 22 -16 -25z"/>
<path d="M2442 2918 c13 -58 -15 -175 -52 -215 -104 -112 -100 -105 -82 -143
12 -27 15 -65 13 -160 -1 -69 -4 -147 -7 -175 -6 -51 -30 -85 -59 -85 -8 0
-15 -6 -15 -14 0 -8 -5 -18 -12 -22 -7 -4 -8 -3 -4 4 4 8 2 10 -7 6 -8 -3 -14
-13 -13 -22 1 -13 -7 -16 -34 -14 -20 2 -44 -4 -55 -12 -18 -14 -18 -15 -2
-16 9 0 17 -7 17 -15 0 -11 11 -15 42 -15 50 0 40 -15 -14 -23 -28 -4 -38 -2
-38 8 0 10 -15 12 -62 8 -58 -4 -62 -3 -44 11 11 9 28 16 37 16 10 0 21 5 25
11 8 14 -49 3 -88 -17 -15 -8 -48 -17 -72 -20 -30 -5 -43 -11 -40 -19 7 -17
-2 -21 -66 -30 l-55 -7 19 21 19 21 -36 0 c-51 0 -86 16 -123 56 -69 73 -72
192 -6 267 18 21 65 22 85 3 18 -18 67 -12 119 15 45 23 67 24 104 4 37 -19
66 -19 62 -1 -2 8 13 25 32 38 22 15 45 45 63 81 22 46 39 65 83 93 52 34 67
53 42 55 -39 3 -77 -6 -132 -31 -33 -16 -64 -26 -68 -24 -4 3 -10 20 -14 39
-6 34 -7 34 -33 21 -52 -27 -250 -96 -321 -112 l-72 -16 5 -35 c5 -30 4 -34
-11 -28 -37 16 -57 11 -57 -15 0 -21 5 -26 33 -28 37 -4 37 -2 16 -73 -22 -73
-34 -95 -44 -79 -6 9 -10 7 -15 -9 -3 -11 -11 -21 -17 -21 -5 0 -8 6 -5 14 8
21 -27 8 -53 -20 -13 -13 -24 -40 -27 -61 l-4 -38 24 29 c28 34 43 22 26 -20
-16 -44 -29 -56 -45 -43 -11 9 -14 5 -14 -26 0 -30 -3 -35 -13 -26 -8 6 -16 8
-20 5 -3 -3 -4 2 -1 13 2 10 -5 29 -16 42 -18 21 -22 22 -38 9 -9 -9 -24 -18
-32 -21 -9 -3 -10 -6 -2 -6 9 -1 10 -12 6 -41 l-7 -40 29 15 c54 28 71 10 37
-41 -20 -31 -35 -121 -24 -143 15 -28 23 -73 12 -67 -6 4 -15 -3 -21 -14 -14
-26 -50 -27 -50 -1 0 11 -5 21 -12 23 -9 3 -9 12 0 38 12 32 16 80 8 80 -13 0
-55 -28 -50 -33 4 -4 14 -2 23 3 14 7 16 4 13 -25 -6 -49 -52 -61 -52 -14 0
57 -51 78 -90 37 -11 -12 -21 -20 -23 -17 -2 2 -15 40 -29 84 -28 83 -28 131
-2 169 7 10 10 25 7 32 -4 10 0 12 11 8 16 -6 46 11 46 27 0 5 -6 9 -12 9 -7
0 -21 21 -32 46 -22 55 -78 111 -120 122 -22 6 -41 3 -68 -10 -49 -24 -69 -22
-38 3 14 11 20 18 13 15 -6 -3 -13 -1 -15 5 -3 9 -10 9 -26 0 -16 -9 -21 -18
-17 -32 7 -21 -10 -27 -18 -6 -3 7 -6 4 -6 -6 -1 -11 -10 -30 -21 -44 -27 -35
-26 -95 4 -174 20 -53 28 -63 47 -64 13 0 29 -4 36 -8 19 -12 20 14 2 52 -28
59 -31 98 -9 104 13 3 20 -2 24 -17 31 -106 35 -130 25 -137 -14 -8 6 -49 24
-48 9 0 9 2 0 6 -7 2 -13 9 -13 14 0 6 5 7 10 4 6 -3 10 3 10 14 0 13 12 26
30 36 42 21 70 20 70 -5 0 -14 -12 -25 -40 -36 -22 -9 -40 -21 -40 -28 0 -20
60 -137 68 -132 16 10 7 -39 -10 -56 -24 -24 -23 -53 2 -78 11 -11 20 -31 20
-45 0 -14 9 -34 20 -45 11 -11 20 -27 20 -35 0 -12 15 -15 73 -15 81 0 216
-20 327 -50 41 -10 76 -15 78 -11 7 19 41 -2 44 -27 3 -23 8 -26 48 -29 25 -1
55 -5 68 -8 20 -5 22 -2 22 29 0 49 21 57 136 55 89 -1 94 -3 79 -18 -10 -12
-15 -37 -15 -74 0 -50 -2 -56 -22 -59 -23 -3 -23 -5 -24 -160 -1 -87 2 -158 5
-158 3 0 12 9 19 21 10 16 21 20 44 17 19 -3 32 0 35 9 3 7 10 13 17 13 8 0
11 46 11 158 l0 157 -25 0 c-24 0 -25 2 -27 78 -1 68 1 78 19 88 23 12 161 2
153 -11 -3 -4 12 -45 33 -90 l38 -83 38 74 c56 107 58 109 135 109 36 0 71 -4
77 -8 7 -4 11 -38 10 -87 -1 -75 -2 -80 -23 -83 -23 -3 -23 -5 -23 -158 l0
-154 25 0 c24 0 25 -2 25 -72 0 -40 3 -83 6 -95 6 -23 6 -23 -109 -23 l-115 0
-4 65 c-4 85 6 125 32 125 19 0 20 7 20 95 0 52 -4 95 -8 95 -5 0 -17 -18 -27
-39 -14 -32 -23 -40 -51 -43 -29 -3 -34 -1 -39 23 -3 15 -15 35 -26 45 -19 17
-19 15 -18 -97 0 -85 3 -109 11 -93 7 15 16 20 33 16 21 -3 22 -7 14 -29 -5
-13 -9 -54 -9 -91 l0 -67 -105 3 -105 3 -2 62 c0 34 -1 69 0 77 0 11 -3 10
-14 -4 -8 -12 -14 -44 -14 -79 0 -57 -1 -59 -22 -53 -13 3 -60 6 -105 6 l-83
0 0 56 c0 34 -4 53 -10 49 -5 -3 -10 -28 -10 -56 l0 -49 -79 0 -79 0 -4 51
c-2 39 1 54 15 67 12 10 17 27 15 46 -3 30 -5 31 -55 34 l-53 3 0 -45 c0 -26
2 -46 5 -46 3 0 18 11 33 25 26 25 52 33 52 17 0 -5 -11 -18 -25 -30 -20 -17
-25 -31 -25 -67 l0 -45 -67 0 c-38 0 -73 4 -80 8 -6 4 -13 24 -14 46 -3 30 1
42 19 57 13 10 21 23 17 29 -4 6 -13 2 -24 -11 l-17 -22 -22 37 c-12 20 -26
36 -32 36 -6 0 2 -16 18 -36 33 -40 32 -55 -6 -96 -56 -61 -134 -58 -192 9
-63 72 -86 162 -71 283 12 93 36 135 93 164 l33 17 -31 -3 c-30 -2 -84 18 -84
31 0 10 215 0 221 -10 3 -5 13 -7 23 -3 9 3 36 2 59 -4 60 -16 135 -24 117
-13 -8 5 -69 19 -135 31 -91 17 -146 21 -230 19 -87 -3 -109 -1 -107 9 1 8 -2
11 -8 7 -15 -9 -12 -49 9 -138 17 -71 17 -78 2 -71 -9 4 -37 9 -63 12 l-47 4
-7 -37 c-3 -20 -4 -70 0 -111 6 -62 4 -75 -9 -80 -8 -4 -24 0 -34 7 -10 8 -43
32 -72 55 -109 82 -149 92 -175 42 -13 -25 -15 -48 -10 -105 3 -39 2 -74 -2
-76 -4 -2 -50 14 -102 35 -155 65 -169 69 -207 62 -45 -8 -89 -46 -102 -87 -9
-26 -8 -44 4 -83 30 -98 15 -171 -32 -162 -14 3 -18 13 -18 46 0 46 -5 51 -27
25 -36 -42 -28 -99 17 -129 38 -25 98 -5 128 41 36 56 51 38 23 -29 -26 -63
-122 -97 -174 -60 -29 20 -29 0 1 -30 27 -27 102 -42 138 -27 36 14 95 81 108
122 6 20 10 51 9 69 -2 27 2 36 23 48 24 14 31 12 130 -35 135 -66 172 -77
199 -63 23 13 24 16 8 75 -7 24 -9 47 -6 51 4 3 46 -13 94 -35 48 -23 102 -41
120 -41 33 0 34 1 34 39 0 23 6 44 16 51 13 11 19 9 41 -12 25 -25 25 -26 13
-97 -11 -66 -10 -74 6 -93 16 -17 26 -19 74 -14 30 4 111 13 179 21 69 8 219
20 335 26 237 12 236 13 236 -63 0 -22 5 -38 12 -38 7 0 6 -6 -4 -17 -8 -10
-20 -45 -27 -78 -7 -33 -15 -68 -17 -78 -5 -15 -1 -14 33 5 46 27 218 191 241
230 13 23 23 28 55 28 l38 0 -7 -37 c-3 -21 -12 -65 -19 -98 -7 -33 -11 -62
-9 -64 2 -3 22 12 43 33 l39 38 7 -31 c4 -17 10 -31 14 -31 8 0 36 86 47 143
7 39 26 46 33 11 9 -47 44 -124 56 -124 19 0 29 -20 17 -32 -8 -8 -2 -24 21
-56 31 -42 124 -129 131 -121 11 13 76 223 72 234 -2 7 4 15 15 18 17 5 19 9
10 26 -16 29 -13 40 9 34 14 -4 23 2 31 21 8 17 20 26 36 26 12 0 26 0 31 0 4
1 12 -28 19 -64 7 -36 22 -84 35 -108 l23 -43 3 37 c5 54 26 67 59 37 l26 -24
-7 25 c-10 37 -20 150 -13 150 3 0 17 -26 32 -57 36 -81 73 -127 90 -113 9 7
16 6 25 -5 19 -23 25 -19 45 40 10 30 20 53 22 51 8 -8 -32 -146 -41 -143 -6
2 -17 14 -23 28 -12 22 -13 22 -13 3 0 -11 11 -31 24 -43 l25 -23 11 43 c18
67 62 202 72 221 8 16 22 17 146 12 164 -6 310 -18 490 -40 132 -17 134 -16
154 4 17 17 19 26 12 59 -7 36 -8 36 -12 10 -6 -49 -26 -23 -39 49 -15 86 -16
154 -3 154 6 0 10 -12 10 -27 1 -16 7 -55 15 -88 l14 -60 -6 78 c-4 64 -3 77
10 77 19 0 30 -15 51 -71 12 -34 26 -51 52 -65 l35 -19 27 32 c15 17 36 46 47
65 14 23 28 33 45 33 21 0 30 -11 55 -63 44 -91 49 -92 140 -27 78 56 115 72
135 60 6 -3 26 -39 45 -79 41 -86 61 -106 117 -117 35 -6 52 -3 96 16 66 30
68 46 4 38 -54 -6 -100 12 -126 49 -23 33 -20 40 18 32 101 -18 177 77 132
165 -14 27 -53 51 -81 51 -22 0 -18 -14 8 -25 28 -13 35 -66 12 -101 -12 -18
-24 -24 -53 -24 -45 0 -68 21 -101 93 -13 26 -37 61 -54 78 -27 28 -35 30 -71
25 -23 -4 -70 -24 -105 -46 -36 -21 -68 -37 -71 -35 -4 2 -15 35 -25 72 -22
84 -39 119 -64 133 -34 18 -51 11 -106 -41 l-55 -51 -10 26 c-5 15 -10 31 -10
36 0 23 -34 107 -51 125 -17 19 -17 25 -4 80 20 85 20 108 -3 96 -11 -6 -24
-6 -36 1 -34 19 -259 4 -384 -26 -61 -15 -110 -32 -107 -36 8 -13 67 -23 74
-13 7 11 114 49 159 57 23 4 38 1 49 -9 8 -8 23 -15 33 -15 10 0 22 -4 25 -10
9 -15 25 -12 25 4 0 7 -17 20 -37 28 l-38 15 82 1 c84 1 104 -6 78 -28 -11 -9
-15 -34 -15 -91 0 -77 -1 -79 -25 -81 -55 -3 -60 -3 -57 10 3 16 -45 34 -69
27 -36 -12 -23 -30 59 -79 101 -61 130 -132 92 -218 -11 -26 -32 -56 -47 -67
-27 -22 -87 -28 -98 -11 -9 15 -35 12 -35 -4 0 -11 -18 -15 -77 -16 -43 -1
-94 -2 -113 -3 -35 -2 -35 -2 -38 45 -3 39 -8 50 -37 73 -20 15 -32 20 -29 11
3 -8 12 -17 20 -20 9 -4 14 -21 14 -55 l0 -50 -47 -6 c-27 -3 -60 -9 -75 -11
-16 -3 -28 -1 -28 5 0 6 -11 6 -32 0 -18 -5 -60 -9 -94 -9 l-62 0 -4 55 c-3
31 -12 63 -21 73 -21 23 -21 32 -2 32 8 0 19 -9 26 -21 6 -12 15 -17 20 -12
10 10 1 53 -12 53 -5 0 -6 7 -3 15 4 8 1 15 -5 15 -6 0 -8 6 -5 14 4 11 -2 12
-28 7 -30 -6 -33 -10 -36 -47 -2 -28 2 -45 13 -54 10 -9 15 -30 15 -71 l0 -59
-80 0 -80 0 -7 33 -7 32 -6 -35 -5 -35 -192 -3 -193 -2 0 96 0 96 25 -4 24 -5
3 159 3 160 -26 -6 -26 -5 -5 82 c-3 45 -5 83 -4 84 4 5 345 4 359 -2 15 -6
17 -22 17 -116 l0 -109 -51 0 c-43 0 -50 3 -45 16 10 26 -22 54 -61 54 -31 0
-33 -2 -33 -35 0 -32 2 -35 30 -35 34 0 38 -9 42 -102 3 -61 -2 -68 -48 -68
-23 0 -26 -7 -24 -57 1 -5 16 -7 34 -6 27 2 35 -2 40 -20 l7 -22 10 25 c6 14
7 45 4 69 -6 42 -6 44 17 38 13 -4 35 -7 50 -7 20 0 32 -8 43 -29 8 -17 12
-37 9 -46 -4 -10 2 -24 15 -36 11 -11 21 -24 21 -29 0 -6 3 -10 8 -10 4 0 7
71 7 158 0 155 0 157 -22 160 -21 3 -22 7 -17 58 2 30 0 63 -6 74 -10 19 -7
20 67 22 43 1 94 2 114 2 50 -1 127 -41 150 -78 33 -54 19 -176 -25 -225 -16
-17 -16 -22 0 -62 23 -58 32 -69 59 -69 12 0 29 -10 38 -23 8 -12 17 -19 21
-16 3 3 17 66 30 140 14 74 29 155 34 182 9 44 8 48 -17 67 -26 19 -26 19 -3
20 19 0 22 5 22 39 0 22 5 43 10 46 6 3 10 -1 10 -10 0 -9 5 -13 10 -10 6 3
10 -1 10 -10 0 -11 6 -15 18 -11 95 31 255 58 365 63 117 5 127 7 127 25 0 12
-9 22 -21 25 -17 5 -20 11 -16 37 3 17 8 38 12 47 5 13 -2 18 -32 24 -74 13
-131 45 -142 77 -6 17 -11 37 -11 45 0 8 34 30 78 50 76 36 147 46 194 28 13
-5 22 4 38 39 13 27 19 53 15 65 -5 17 -2 21 15 21 12 0 34 -8 48 -18 44 -31
52 -34 46 -20 -6 17 -88 58 -114 58 -13 0 -20 -7 -20 -20 0 -11 5 -20 10 -20
6 0 10 -7 10 -15 0 -19 -6 -19 -38 3 -15 10 -39 23 -54 30 -22 9 -26 9 -22 -2
3 -8 17 -16 32 -19 24 -5 59 -53 47 -65 -12 -12 -52 11 -69 40 -11 18 -21 27
-24 20 -2 -7 3 -24 12 -37 16 -24 15 -25 -3 -25 -10 0 -24 6 -30 14 -19 23
-10 103 16 141 13 19 22 47 22 62 l-1 28 -7 -26 c-3 -14 -16 -37 -27 -52 -20
-24 -29 -27 -84 -27 -52 0 -146 15 -159 26 -2 2 6 20 18 40 12 20 18 40 14 44
-12 10 -129 60 -141 60 -6 0 -17 18 -23 41 -12 37 -14 39 -21 19 -4 -12 -5
-26 -2 -32 3 -5 -3 -4 -14 3 -18 11 -29 6 -97 -45 l-77 -58 -76 48 c-43 26
-102 61 -132 78 -30 16 -57 33 -60 37 -10 14 -86 37 -139 43 -33 3 -58 11 -63
20 -5 8 -15 13 -23 10 -10 -4 -12 0 -8 15 3 12 9 21 14 21 5 0 9 9 9 20 0 27
14 25 37 -3 22 -28 43 -25 35 6 -5 22 -4 21 22 -3 l27 -25 -30 -8 c-17 -4 -31
-10 -31 -13 0 -3 9 -3 20 1 18 6 59 -2 104 -21 18 -7 18 -6 -2 22 -24 34 -37
74 -24 74 5 0 16 -18 25 -41 16 -41 44 -47 31 -7 -7 24 -10 24 121 -11 80 -21
93 -43 30 -49 -53 -4 -63 -8 -44 -17 22 -8 94 11 114 31 20 20 19 33 -2 32
-15 -1 -188 67 -301 117 -37 17 -83 20 -97 6 -6 -5 -27 -12 -47 -15 -36 -7
-38 -6 -38 20 0 23 -3 25 -22 20 -62 -18 -81 -19 -73 -6 5 9 4 11 -3 6 -20
-12 -14 -29 27 -71 37 -37 39 -43 34 -82 -4 -28 -10 -40 -18 -37 -15 6 -153
-40 -169 -56 -7 -7 -4 -26 8 -61 12 -32 15 -54 9 -58 -6 -3 -21 -24 -35 -46
l-26 -41 56 -64 c78 -92 125 -158 156 -219 26 -50 26 -54 10 -72 -17 -18 -18
-17 -49 46 -32 64 -113 171 -177 233 -40 38 -36 40 -129 -68 -73 -84 -127
-169 -138 -217 -8 -35 -10 -33 -15 17 0 8 4 18 9 23 6 4 5 10 -3 15 -14 9 -5
45 9 36 5 -3 6 1 4 8 -3 7 27 55 66 107 50 66 68 98 63 109 -6 14 -8 13 -11
-5 -3 -13 -5 -23 -6 -23 -1 0 -17 4 -35 10 -27 7 -32 7 -23 -4 6 -7 8 -16 4
-19 -11 -12 -73 -8 -73 4 0 8 -5 8 -15 -1 -8 -7 -15 -8 -15 -3 0 5 17 22 37
36 26 18 40 23 49 16 8 -7 18 -2 33 17 12 15 21 31 21 35 0 17 22 9 27 -10 5
-19 7 -19 47 6 63 39 86 64 86 93 0 14 6 32 13 39 12 14 5 13 -39 -5 -7 -3
-13 24 -17 78 -3 46 -15 114 -27 151 l-21 68 35 69 c23 46 37 91 41 133 8 71
-8 169 -30 187 -11 9 -11 4 -3 -32z m-392 -427 c17 -32 12 -46 -8 -28 -25 23
-41 21 -35 -3 4 -14 0 -20 -12 -20 -15 0 -15 -2 -4 -16 7 -9 21 -13 33 -10 19
5 19 4 -3 -15 -28 -23 -93 -25 -115 -3 -9 8 -16 26 -16 39 0 18 10 27 53 43
96 38 93 37 107 13z m-180 -68 c0 -12 -2 -12 -15 1 -8 8 -15 17 -15 20 0 3 7
3 15 0 8 -4 15 -13 15 -21z m-49 -21 c-9 -3 -9 -7 -1 -17 22 -27 -50 -46 -91
-25 -30 17 -23 28 34 54 46 21 53 22 61 8 6 -11 5 -17 -3 -20z m898 -62 c-5
-16 -13 -43 -18 -59 -5 -16 -6 -33 -3 -37 4 -4 1 -4 -6 0 -15 9 -12 31 13 89
18 45 27 49 14 7z m346 -49 c33 -19 79 -50 103 -68 69 -53 133 -87 140 -76 11
16 144 103 159 103 31 0 6 -32 -66 -85 -43 -31 -65 -39 -108 -43 -77 -6 -148
12 -227 58 -40 23 -66 34 -62 25 3 -8 -3 -19 -12 -25 -14 -9 -11 -10 13 -6 21
4 38 0 55 -14 l25 -20 -70 -1 c-96 -3 -115 -4 -152 -13 -31 -7 -33 -6 -33 17
0 28 23 57 46 57 8 0 14 5 14 10 0 6 -10 8 -24 4 -31 -7 -36 2 -29 54 4 32 10
42 22 40 9 -2 20 -12 25 -23 14 -30 96 -81 96 -59 0 4 -28 32 -62 64 -53 49
-59 57 -37 53 15 -3 30 0 33 6 9 13 68 -10 151 -58z m-249 23 c9 -49 -1 -135
-20 -172 -14 -26 -14 -31 -1 -42 12 -10 29 -9 82 1 75 15 259 17 368 5 68 -8
72 -7 139 28 38 20 73 36 78 36 19 0 -6 -46 -44 -82 -22 -21 -44 -54 -49 -73
-8 -28 -15 -35 -34 -35 -14 0 -25 -4 -25 -9 0 -8 -32 -14 -150 -29 -30 -4 -60
-10 -66 -14 -22 -14 -103 -19 -121 -8 -15 9 -13 10 12 5 l30 -7 -28 23 c-20
15 -32 18 -39 11 -13 -13 -90 26 -81 41 3 6 1 7 -5 3 -17 -10 -91 62 -118 117
-14 27 -21 46 -15 42 6 -3 11 -3 11 2 4 92 35 193 61 193 4 0 11 -16 15 -36z
m-1874 -40 c13 -8 9 -34 -6 -40 -8 -3 -16 -18 -20 -35 -6 -33 -34 -39 -60 -13
-21 20 -20 41 2 53 9 6 11 11 5 11 -7 0 -13 6 -13 14 0 8 6 17 13 19 13 5 65
-1 79 -9z m56 -52 c2 -7 -2 -10 -12 -6 -9 3 -16 11 -16 16 0 13 23 5 28 -10z
m-251 -54 c-2 -13 -4 -5 -4 17 -1 22 1 32 4 23 2 -10 2 -28 0 -40z m254 -8
c15 -25 28 -55 28 -67 2 -40 -25 -25 -49 27 -13 28 -30 56 -37 61 -7 6 -10 16
-7 21 12 19 38 2 65 -42z m439 11 c-22 -32 -30 -38 -30 -22 0 12 41 63 47 57
3 -3 -5 -19 -17 -35z m87 -10 c-1 -16 -5 -27 -9 -24 -5 2 -8 -1 -8 -6 0 -6 -7
-11 -15 -11 -18 0 -19 23 -3 50 19 30 38 25 35 -9z m32 2 c-2 -10 5 -32 14
-50 11 -20 13 -34 7 -38 -15 -9 -12 -25 5 -25 14 0 14 -3 0 -27 -8 -16 -21
-37 -30 -47 -15 -20 -15 -20 -29 0 -8 10 -14 34 -14 53 1 27 7 36 32 48 30 14
30 14 4 8 -27 -5 -38 7 -18 20 6 3 10 22 10 41 0 19 5 34 11 34 5 0 9 -8 8
-17z m-89 -118 c0 -26 7 -42 26 -58 27 -23 32 -56 20 -113 -13 -59 -91 -111
-148 -99 -35 8 -48 31 -48 88 0 57 43 120 94 137 32 10 36 15 36 46 0 19 5 34
10 34 6 0 10 -16 10 -35z m1012 -30 c-4 -25 12 -36 21 -12 3 9 8 9 18 -2 9 -9
9 -11 2 -7 -7 4 -13 3 -13 -2 0 -15 26 -33 35 -24 5 4 5 -1 2 -10 -3 -10 -1
-20 5 -24 7 -4 8 -3 4 4 -4 7 -2 12 3 12 6 0 11 -11 11 -24 0 -14 11 -37 24
-53 13 -15 27 -39 31 -53 7 -22 6 -23 -9 -11 -9 7 -16 19 -16 26 0 8 -3 15 -8
17 -4 2 -34 36 -67 76 -32 39 -62 72 -65 72 -3 0 -23 -23 -44 -51 -29 -37 -41
-47 -48 -37 -6 9 -8 7 -4 -8 4 -14 -2 -28 -19 -44 -22 -20 -25 -21 -31 -6 -7
19 9 46 89 145 53 64 62 71 72 57 7 -9 10 -27 7 -41z m1339 -2 c-8 -15 -10
-15 -11 -2 0 17 10 32 18 25 2 -3 -1 -13 -7 -23z m-1057 -9 c3 -8 2 -12 -4 -9
-6 3 -10 10 -10 16 0 14 7 11 14 -7z m1022 -9 c-10 -8 -23 -12 -29 -8 -11 7
12 23 33 23 12 -1 11 -4 -4 -15z m-1786 -7 c-1 -22 -66 -46 -103 -38 l-32 7
25 10 c14 6 43 15 65 21 22 5 41 10 43 11 1 0 2 -5 2 -11z m262 -10 c-17 -8
-26 -8 -34 0 -9 9 -4 12 23 11 32 0 33 -1 11 -11z m-512 -12 c0 -19 -87 -38
-112 -25 -14 7 -16 6 -12 -5 4 -11 -3 -17 -23 -21 -15 -4 -34 -8 -40 -11 -8
-2 -13 6 -13 19 0 18 8 25 43 34 32 9 44 9 52 0 13 -16 55 -9 55 9 0 8 10 14
25 14 15 0 25 -6 25 -14z m-742 -28 c16 -32 42 -108 42 -124 0 -33 -28 -9 -62
55 -28 51 -34 71 -25 80 17 17 32 13 45 -11z m1125 11 c-14 -14 -105 -17 -109
-4 -2 6 22 11 58 12 42 2 58 -1 51 -8z m-393 -24 c0 -7 -62 -32 -101 -40 -30
-6 -32 -5 -19 8 21 22 120 48 120 32z m226 -74 c140 -68 169 -92 127 -105 -11
-3 -76 23 -158 63 l-140 69 -85 -46 c-47 -25 -108 -60 -137 -78 -33 -21 -59
-31 -73 -27 -41 11 -23 25 185 153 59 36 87 47 108 44 16 -2 93 -35 173 -73z
m254 70 c0 -5 -8 -24 -17 -43 -9 -18 -19 -40 -23 -48 -9 -19 -66 -22 -81 -4
-12 15 21 54 47 54 9 0 14 8 13 18 -1 9 -1 20 0 25 2 10 61 9 61 -2z m1077
-73 c76 -45 144 -88 151 -97 18 -22 15 -41 -7 -41 -11 0 -22 -8 -24 -17 -4
-14 -5 -13 -6 4 -1 15 -18 33 -55 57 -84 54 -206 119 -212 113 -3 -3 4 -10 15
-17 12 -6 18 -16 15 -22 -4 -7 -3 -8 4 -4 15 9 214 -103 206 -115 -11 -19 -43
-7 -136 50 l-96 58 -84 -37 c-115 -52 -153 -64 -172 -57 -26 10 -14 20 69 56
64 28 79 32 87 20 8 -11 9 -10 4 3 -4 13 5 23 34 38 44 22 54 35 17 21 -57
-22 -223 -103 -237 -116 -15 -14 -19 -13 -34 3 -15 18 -15 20 -1 32 30 25 280
148 302 149 13 0 85 -36 160 -81z m-2323 20 c8 -21 13 -38 11 -38 -6 0 -45 76
-45 87 0 14 18 -13 34 -49z m1539 -43 c26 -41 47 -76 47 -78 0 -3 -9 -7 -20
-10 -16 -4 -25 3 -40 32 -32 64 -43 67 -74 21 -14 -22 -26 -44 -26 -50 0 -5
-9 -10 -20 -10 -11 0 -20 4 -20 10 0 11 93 160 100 160 3 0 26 -34 53 -75z
m-439 34 c-8 -16 -17 -29 -19 -29 -12 0 -94 46 -95 52 0 4 29 7 64 6 l65 -1
-15 -28z m1530 -49 c5 -20 3 -19 -8 5 -7 17 -16 41 -20 55 -5 20 -3 19 8 -5 7
-16 16 -41 20 -55z m-1754 25 c38 -19 48 -29 44 -43 -5 -13 -4 -14 4 -3 8 12
15 12 41 1 17 -7 31 -19 31 -26 0 -8 5 -14 10 -14 6 0 10 4 10 9 0 5 14 2 32
-6 29 -15 30 -17 13 -29 -16 -12 -22 -12 -39 1 -12 8 -28 18 -36 21 -8 3 -48
20 -89 37 l-74 31 -55 -30 c-30 -16 -59 -30 -62 -32 -4 -2 -10 6 -13 17 -3 12
1 22 10 25 9 4 11 2 7 -5 -4 -7 -1 -10 7 -7 8 3 13 10 12 16 -1 5 4 13 13 16
8 3 12 1 9 -4 -3 -6 1 -7 9 -4 9 3 13 10 10 15 -3 5 2 6 10 3 11 -4 16 0 16
15 0 28 19 27 80 -4z m-705 -5 c4 -6 4 -18 1 -27 -5 -12 -9 -13 -21 -3 -8 7
-15 19 -15 26 0 16 26 19 35 4z m425 0 c0 -5 -10 -10 -22 -10 -19 0 -20 2 -8
10 19 13 30 13 30 0z m915 -50 c17 -33 18 -40 7 -40 -9 0 -32 44 -32 60 0 18
9 10 25 -20z m-1415 -7 c0 -14 -9 -18 -38 -20 l-37 -2 24 20 c29 24 51 25 51
2z m566 -46 c-29 -23 -61 -31 -82 -19 -15 8 -12 13 25 32 24 12 40 16 36 9 -5
-7 -3 -10 6 -7 8 3 15 10 15 16 3 25 6 26 14 7 6 -15 2 -25 -14 -38z m198 -4
c20 -32 36 -61 36 -65 0 -15 -29 -8 -39 10 -7 11 -10 13 -11 3 0 -11 -3 -11
-15 -1 -9 8 -13 21 -10 34 l6 21 -18 -21 c-10 -11 -25 -31 -34 -44 -8 -13 -20
-20 -27 -16 -7 4 3 28 30 71 22 36 42 65 43 65 2 0 20 -26 39 -57z m1350 0
c20 -32 36 -61 36 -65 0 -15 -29 -8 -39 10 -10 16 -10 15 -11 -3 -1 -19 -1
-19 -11 -2 -12 20 -31 13 -22 -8 3 -8 1 -15 -4 -15 -21 0 -21 14 -3 38 11 13
20 30 20 36 -1 11 -36 -27 -56 -60 -8 -13 -15 -16 -22 -9 -7 7 3 31 30 73 22
34 41 62 43 62 2 0 20 -26 39 -57z m-736 21 c2 -22 0 -25 -13 -14 -8 7 -15 9
-15 5 0 -5 -3 -5 -7 -2 -3 4 2 14 13 22 10 8 19 15 19 15 0 0 2 -12 3 -26z
m-1101 -32 c-10 -11 -15 -26 -12 -34 3 -8 -1 -21 -10 -28 -14 -12 -18 -11 -26
1 -13 21 -12 25 16 55 14 15 25 32 25 37 0 7 4 7 12 -1 9 -9 8 -16 -5 -30z
m1403 8 c0 -15 7 -20 29 -20 17 0 33 5 36 11 8 12 45 -17 45 -36 0 -13 -64
-25 -131 -25 -44 0 -43 -1 -27 37 24 52 48 69 48 33z m-630 -11 c0 -5 18 -9
40 -9 26 0 47 -7 59 -19 18 -18 18 -19 -23 -24 -22 -3 -60 -3 -83 0 -39 5 -43
8 -43 34 0 28 14 40 38 31 6 -2 12 -8 12 -13z m-990 -30 c0 -5 -10 -8 -22 -8
-13 1 -31 -2 -42 -6 -28 -12 -15 17 14 32 24 12 50 2 50 -18z m299 5 c12 -26
6 -90 -9 -99 -11 -7 -18 15 -26 75 -5 40 -4 50 8 50 8 0 20 -12 27 -26z m358
-40 c-9 -9 -28 6 -21 18 4 6 10 6 17 -1 6 -6 8 -13 4 -17z m-631 -39 c-10 -8
-23 -12 -28 -9 -14 9 2 24 25 24 21 -1 21 -1 3 -15z m1044 -1 c0 -2 -17 -4
-37 -4 -24 0 -33 3 -25 9 12 7 62 4 62 -5z m-97 -1 c-7 -2 -21 -2 -30 0 -10 3
-4 5 12 5 17 0 24 -2 18 -5z m-1178 -312 c3 -5 -5 -11 -17 -13 -15 -2 -24 -11
-26 -25 -4 -26 -22 -32 -22 -7 0 41 47 73 65 45z m2982 -33 c-3 -7 -5 -2 -5
12 0 14 2 19 5 13 2 -7 2 -19 0 -25z m71 0 c7 -7 12 -19 12 -27 -1 -12 -4 -11
-12 4 -6 11 -16 23 -22 27 -7 5 -8 8 0 8 5 0 15 -5 22 -12z m-81 -85 c-3 -10
-5 -2 -5 17 0 19 2 27 5 18 2 -10 2 -26 0 -35z m338 -53 l6 -35 -17 30 c-20
36 -44 65 -55 65 -4 0 -21 -11 -37 -25 -17 -14 -33 -25 -36 -25 -14 0 28 52
53 65 24 13 28 12 53 -13 15 -15 30 -43 33 -62z m-3546 39 c77 -51 91 -72 17
-24 -31 19 -69 38 -84 41 -24 5 -30 2 -36 -18 -4 -13 -10 -18 -12 -11 -8 19
15 53 35 53 10 0 46 -18 80 -41z m-368 -80 c19 -7 39 -16 44 -21 6 -5 -3 -4
-18 1 -16 6 -48 11 -72 11 -35 0 -52 -6 -80 -31 -37 -33 -46 -29 -19 9 28 41
82 52 145 31z m4192 -20 c23 -10 53 -56 44 -66 -3 -2 -14 7 -25 21 -25 33 -85
35 -142 6 -22 -11 -43 -20 -47 -20 -17 0 41 33 90 50 28 10 53 19 54 19 1 1
13 -4 26 -10z m-4067 -37 c10 -6 15 -11 9 -12 -5 0 -16 4 -24 9 -10 7 -19 4
-26 -6 -14 -19 -45 -11 -45 13 0 12 7 15 34 11 18 -2 42 -9 52 -15z m3521 -38
c-3 -3 -12 -4 -19 -1 -8 3 -5 6 6 6 11 1 17 -2 13 -5z m261 -16 c7 -7 12 -16
12 -22 0 -6 -5 -5 -12 2 -19 19 -59 14 -86 -10 -26 -23 -21 -8 6 25 17 20 62
23 80 5z m-3273 -18 c4 -6 -5 -10 -20 -10 -15 0 -24 4 -20 10 3 6 12 10 20 10
8 0 17 -4 20 -10z m-275 -24 c0 -3 -4 -8 -10 -11 -5 -3 -10 -1 -10 4 0 6 5 11
10 11 6 0 10 -2 10 -4z m3780 -6 c0 -6 9 -5 24 1 25 12 66 -2 66 -21 0 -6 -8
-5 -19 2 -14 9 -29 8 -65 -4 -50 -17 -51 -16 -36 13 11 20 30 26 30 9z m-3745
-10 c3 -6 -1 -7 -9 -4 -18 7 -21 14 -7 14 6 0 13 -4 16 -10z m-294 -31 c52
-26 46 -34 -9 -12 -34 13 -50 14 -77 6 -37 -12 -47 -1 -17 16 27 16 59 13 103
-10z m3989 -3 c0 -8 -5 -18 -11 -22 -14 -8 -33 11 -25 25 10 16 36 13 36 -3z
m-3363 -18 c-3 -8 -6 -5 -6 6 -1 11 2 17 5 13 3 -3 4 -12 1 -19z m-10 -50 c-3
-7 -5 -2 -5 12 0 14 2 19 5 13 2 -7 2 -19 0 -25z m103 22 c0 -5 -7 -10 -16
-10 -8 0 -12 5 -9 10 3 6 10 10 16 10 5 0 9 -4 9 -10z m2670 0 c0 -5 -7 -10
-15 -10 -8 0 -15 5 -15 10 0 6 7 10 15 10 8 0 15 -4 15 -10z m-1932 -57 c-60
-2 -156 -2 -215 0 -60 1 -11 3 107 3 118 0 167 -2 108 -3z m1415 0 c-56 -2
-151 -2 -210 0 -59 1 -13 3 102 3 116 0 164 -2 108 -3z m-1815 -10 c-15 -2
-42 -2 -60 0 -18 2 -6 4 27 4 33 0 48 -2 33 -4z m630 0 c-15 -2 -42 -2 -60 0
-18 2 -6 4 27 4 33 0 48 -2 33 -4z m785 0 c-18 -2 -48 -2 -65 0 -18 2 -4 4 32
4 36 0 50 -2 33 -4z m625 0 c-16 -2 -40 -2 -55 0 -16 2 -3 4 27 4 30 0 43 -2
28 -4z m-2165 -10 c-13 -2 -35 -2 -50 0 -16 2 -5 4 22 4 28 0 40 -2 28 -4z
m890 0 c-13 -2 -33 -2 -45 0 -13 2 -3 4 22 4 25 0 35 -2 23 -4z m510 0 c-13
-2 -35 -2 -50 0 -16 2 -5 4 22 4 28 0 40 -2 28 -4z m885 0 c-10 -2 -28 -2 -40
0 -13 2 -5 4 17 4 22 1 32 -1 23 -4z m-2390 -10 c-10 -2 -28 -2 -40 0 -13 2
-5 4 17 4 22 1 32 -1 23 -4z m1100 0 c-10 -2 -28 -2 -40 0 -13 2 -5 4 17 4 22
1 32 -1 23 -4z m290 0 c-10 -2 -28 -2 -40 0 -13 2 -5 4 17 4 22 1 32 -1 23 -4z
m1090 0 c-10 -2 -26 -2 -35 0 -10 3 -2 5 17 5 19 0 27 -2 18 -5z m-2560 -10
c-10 -2 -26 -2 -35 0 -10 3 -2 5 17 5 19 0 27 -2 18 -5z m1262 -18 c13 -14 19
-25 13 -25 -6 0 -17 7 -24 16 -7 9 -22 20 -34 24 -20 9 -20 9 1 9 11 1 31 -10
44 -24z m104 15 c-12 -5 -25 -13 -29 -19 -3 -6 -16 -16 -28 -22 -12 -6 -7 2
13 19 19 17 42 31 50 31 9 0 6 -4 -6 -9z m1269 3 c-7 -2 -21 -2 -30 0 -10 3
-4 5 12 5 17 0 24 -2 18 -5z m-2720 -10 c-7 -2 -19 -2 -25 0 -7 3 -2 5 12 5
14 0 19 -2 13 -5z m2790 0 c-7 -2 -19 -2 -25 0 -7 3 -2 5 12 5 14 0 19 -2 13
-5z m-2026 -85 c-3 -8 -6 -5 -6 6 -1 11 2 17 5 13 3 -3 4 -12 1 -19z m58 -83
c-50 -45 -93 -81 -96 -79 -9 5 23 124 33 124 6 0 7 -15 3 -37 -8 -43 -9 -43
84 40 92 82 71 40 -24 -48z m948 72 c4 3 7 -1 7 -10 0 -9 -4 -17 -10 -17 -5 0
-10 5 -10 10 0 23 -19 8 -25 -20 -4 -16 -11 -30 -16 -30 -11 0 -23 45 -16 62
4 8 6 7 6 -4 1 -25 18 -23 26 3 5 15 10 17 19 10 7 -6 16 -8 19 -4z m120 -16
c19 -32 21 -41 9 -41 -5 0 -16 16 -25 35 -20 42 -8 47 16 6z m-795 -9 c9 7 6
0 -7 -15 -33 -36 -40 -34 -27 9 9 28 12 31 14 14 3 -18 6 -19 20 -8z m52 -4
c0 -6 -6 -5 -15 2 -8 7 -15 14 -15 16 0 2 7 1 15 -2 8 -4 15 -11 15 -16z m324
-105 c-13 -43 -27 -88 -30 -100 -3 -13 -10 -23 -14 -23 -14 0 -120 121 -120
137 0 16 99 -83 100 -99 0 -15 20 -8 20 7 0 22 53 155 61 155 4 0 -3 -35 -17
-77z"/>
<path d="M2940 2200 c0 -5 -7 -10 -16 -10 -8 0 -12 -5 -9 -10 4 -7 13 -7 26 0
20 11 26 30 9 30 -5 0 -10 -4 -10 -10z"/>
<path d="M3162 2048 c-21 -21 -14 -24 56 -24 37 0 84 -4 105 -8 33 -8 37 -7
37 11 0 16 -9 22 -37 27 -62 10 -148 7 -161 -6z"/>
<path d="M1388 1927 c-21 -17 -28 -32 -28 -60 0 -38 19 -57 59 -57 27 0 61 46
61 84 0 58 -43 73 -92 33z m64 -22 c-2 -11 -10 -27 -18 -35 -12 -12 -14 -9
-14 24 0 30 3 37 18 34 11 -2 16 -11 14 -23z"/>
<path d="M2704 2944 c4 -11 19 -79 34 -150 l28 -129 57 -3 c42 -2 62 1 73 13
14 14 12 17 -17 33 -49 26 -78 60 -112 132 -36 76 -71 135 -63 104z"/>
<path d="M2077 2893 c-14 -14 -6 -59 13 -76 28 -24 37 -21 43 11 9 43 -32 90
-56 65z m41 -32 c3 -8 -1 -12 -9 -9 -7 2 -15 10 -17 17 -3 8 1 12 9 9 7 -2 15
-10 17 -17z"/>
<path d="M3281 2855 c-37 -55 -38 -65 -7 -65 19 0 23 4 19 21 -4 12 3 32 16
49 11 16 17 31 12 35 -5 3 -23 -15 -40 -40z"/>
<path d="M2267 2883 c-12 -12 -7 -41 9 -58 22 -22 15 -26 -58 -35 -154 -18
-372 -76 -500 -133 l-57 -25 -7 68 c-3 38 -12 71 -18 73 -6 3 -28 13 -49 21
-37 16 -38 16 -27 -3 14 -27 44 -42 67 -35 13 5 12 2 -5 -11 -21 -15 -25 -15
-46 -2 -13 9 -29 29 -36 46 -21 51 -34 37 -27 -29 l7 -60 -29 15 c-22 11 -31
24 -34 47 -3 30 -4 29 -5 -8 -2 -38 1 -43 26 -50 20 -5 23 -8 10 -11 -21 -5
-25 -69 -5 -76 8 -3 6 -7 -7 -12 -11 -5 -27 -3 -37 4 -28 17 -23 9 21 -38 38
-40 51 -71 30 -71 -5 0 -10 6 -10 13 0 21 -14 35 -43 42 -20 5 -27 4 -27 -8 0
-22 39 -67 59 -67 12 0 17 -7 17 -21 -1 -31 22 -35 33 -7 5 13 18 30 28 38 47
38 92 70 99 70 4 0 15 7 24 15 10 9 27 17 39 20 42 8 191 56 191 61 0 3 -15 3
-32 -1 -71 -15 -8 13 109 49 77 23 150 39 195 42 142 8 143 8 138 79 -3 39
-10 50 -22 34 -6 -10 -7 -7 -3 9 6 21 -4 30 -18 15z m-685 -245 c16 -7 28 -17
28 -22 0 -16 -34 -35 -62 -36 -25 0 -28 4 -28 33 0 19 3 37 7 41 7 7 10 6 55
-16z m245 6 c-3 -3 -12 -4 -19 -1 -8 3 -5 6 6 6 11 1 17 -2 13 -5z"/>
<path d="M1700 2825 c0 -53 -15 -59 -29 -12 -9 30 -9 30 -10 6 -1 -36 22 -53
61 -45 41 8 58 23 58 51 0 14 -9 26 -25 33 -46 21 -55 16 -55 -33z"/>
<path d="M1846 2854 c-3 -9 -6 -30 -6 -49 0 -25 5 -34 22 -38 28 -8 34 -3 42
29 7 27 -4 48 -35 64 -12 7 -19 5 -23 -6z m34 -14 c8 -5 11 -12 7 -16 -4 -4
-15 0 -24 9 -18 18 -8 23 17 7z"/>
<path d="M3573 2822 c-7 -4 -9 -13 -4 -21 6 -10 10 -9 15 5 8 20 4 25 -11 16z"/>
<path d="M3440 2765 c-58 -31 -40 -31 25 0 28 13 43 24 35 24 -8 0 -35 -11
-60 -24z"/>
<path d="M3529 2693 c-11 -27 -26 -61 -34 -77 l-13 -29 -12 23 c-19 36 -22 16
-3 -24 l17 -37 17 43 c9 24 26 67 38 96 26 65 17 69 -10 5z"/>
<path d="M4063 2684 c-17 -9 -40 -25 -50 -37 -12 -14 -13 -18 -2 -10 12 10 18
10 28 0 10 -9 19 -5 42 21 26 29 32 32 47 20 15 -12 16 -11 3 5 -16 21 -27 21
-68 1z"/>
<path d="M1885 2629 c-33 -16 -49 -26 -35 -23 29 7 120 53 105 53 -5 0 -37
-14 -70 -30z"/>
<path d="M4108 2619 c-9 -16 -33 -36 -52 -46 -20 -9 -36 -22 -36 -30 0 -30 71
21 97 70 19 38 12 43 -9 6z"/>
<path d="M774 2449 c-4 -8 -3 -9 5 -5 6 4 14 0 17 -9 9 -23 -3 -30 -23 -14
-16 12 -17 12 -7 -1 14 -19 15 -81 0 -100 -7 -10 -4 -10 9 2 12 9 36 24 55 32
19 8 29 15 23 16 -7 0 -13 7 -13 15 0 9 -7 18 -15 21 -8 4 -15 12 -15 19 0 20
-27 38 -36 24z m56 -64 c0 -19 -20 -29 -32 -17 -15 15 -2 43 17 36 8 -3 15
-12 15 -19z"/>
<path d="M2247 2446 c-11 -27 -141 -127 -212 -162 -93 -46 -212 -62 -341 -47
-49 6 -90 10 -91 9 -2 -1 6 -20 18 -42 19 -37 20 -65 4 -105 -5 -13 5 -21 42
-35 70 -27 184 -24 298 8 50 14 113 31 141 38 91 20 144 105 152 242 4 62 7
75 19 71 11 -4 14 0 11 13 -4 23 -33 30 -41 10z m-12 -108 c-14 -142 -44 -178
-182 -219 -56 -16 -114 -31 -130 -33 -15 -3 -44 -9 -63 -15 -58 -19 -200 8
-200 38 0 36 91 52 98 16 3 -15 5 -15 18 4 11 16 24 19 58 17 23 -1 58 3 77
10 29 10 16 12 -91 7 -124 -4 -125 -4 -149 21 -31 33 -21 43 32 29 25 -7 61
-8 89 -4 25 4 54 4 63 -1 10 -6 21 -5 30 2 7 6 33 12 57 14 44 2 82 21 162 78
21 15 46 28 55 28 9 1 28 19 43 40 15 22 31 40 34 40 3 0 3 -33 -1 -72z"/>
<path d="M2113 2277 c-42 -20 -43 -22 -43 -69 0 -26 5 -48 10 -48 6 0 10 20
10 46 0 42 2 46 35 60 49 20 55 18 55 -17 0 -16 4 -28 8 -25 4 3 6 21 4 40 -5
42 -18 44 -79 13z"/>
<path d="M2015 2190 c-19 -8 -19 -9 3 -9 12 -1 22 4 22 9 0 6 -1 10 -2 9 -2 0
-12 -4 -23 -9z"/>
<path d="M3410 2428 c-99 -36 -97 -35 -82 -50 9 -9 12 -9 12 0 0 16 37 15 43
0 3 -9 13 -4 29 14 15 17 38 29 65 33 23 4 47 13 54 21 19 23 -26 17 -121 -18z"/>
<path d="M3475 2370 c-16 -7 -17 -9 -3 -9 9 -1 19 -7 21 -13 3 -7 6 -3 6 10 1
12 0 22 -1 21 -2 0 -12 -4 -23 -9z"/>
<path d="M877 2353 c-12 -12 -7 -33 8 -33 17 0 19 9 7 28 -5 7 -11 9 -15 5z"/>
<path d="M3418 2353 c6 -2 18 -2 25 0 6 3 1 5 -13 5 -14 0 -19 -2 -12 -5z"/>
<path d="M1040 2266 c0 -2 8 -10 18 -17 15 -13 16 -12 3 4 -13 16 -21 21 -21
13z"/>
<path d="M3908 2213 c5 -21 7 -23 10 -9 2 10 0 22 -6 28 -6 6 -7 0 -4 -19z"/>
<path d="M2485 2190 c-3 -5 -3 -15 0 -20 4 -6 1 -17 -5 -25 -10 -12 -9 -15 4
-15 13 0 46 46 46 65 0 9 -39 5 -45 -5z"/>
<path d="M691 2089 c-1 -48 29 -107 58 -117 8 -3 3 8 -12 24 -17 18 -29 44
-32 74 -9 66 -13 71 -14 19z"/>
<path d="M1162 1998 c5 -15 48 -24 48 -10 0 10 -23 22 -42 22 -5 0 -8 -6 -6
-12z"/>
<path d="M1160 1919 c-7 -11 -10 -23 -7 -25 2 -2 9 7 15 21 14 30 7 33 -8 4z"/>
<path d="M1189 1923 c-13 -16 -12 -17 4 -4 16 13 21 21 13 21 -2 0 -10 -8 -17
-17z"/>
<path d="M1495 1411 c-27 -16 -29 -21 -26 -69 2 -45 0 -52 -16 -52 -16 0 -18
-6 -15 -35 l4 -35 25 20 c14 11 36 20 49 20 15 0 24 6 24 15 0 8 -6 15 -14 15
-9 0 -15 16 -18 48 -4 38 -1 50 15 63 28 23 6 31 -28 10z"/>
<path d="M3576 1421 c-4 -6 -25 -15 -46 -21 -48 -13 -48 -13 -12 -145 l27
-100 40 0 c41 0 115 -37 115 -57 0 -6 6 -8 14 -5 7 3 30 -6 51 -20 40 -27 40
-27 49 4 5 17 4 22 -6 18 -7 -3 -29 5 -49 18 -68 42 -134 86 -154 102 -19 16
-19 16 5 3 53 -30 60 -30 48 3 -5 16 -14 27 -18 24 -18 -11 -20 65 -3 117 18
52 18 53 -2 54 -11 0 -27 4 -36 8 -10 4 -20 3 -23 -3z"/>
<path d="M1300 1322 l0 -89 -31 -7 c-45 -9 -46 -8 -53 18 -13 54 -55 65 -91
26 -11 -12 -16 -36 -16 -72 0 -56 21 -127 28 -96 2 9 17 22 33 28 25 10 34 10
53 -3 22 -14 26 -14 55 5 l31 20 20 -33 c22 -36 35 -25 27 21 -2 14 -5 55 -5
92 -1 55 -4 67 -18 70 -14 2 -17 12 -14 50 1 25 -2 49 -8 53 -8 4 -11 -22 -11
-83z"/>
<path d="M1677 1383 c-4 -3 -7 -28 -7 -54 0 -39 -3 -48 -21 -52 -20 -5 -20
-10 -13 -129 4 -68 8 -125 11 -127 2 -3 10 5 19 17 8 12 24 22 36 22 18 0 19
-2 7 -17 -7 -10 -2 -7 12 7 25 25 25 26 19 165 -5 132 -6 140 -25 140 -14 0
-19 6 -17 18 3 17 -9 23 -21 10z"/>
<path d="M3027 1344 c-10 -10 -9 -54 1 -54 4 0 13 5 20 12 9 9 16 7 32 -7 19
-17 20 -17 30 10 8 21 8 31 -1 39 -9 8 -10 7 -4 -3 6 -11 4 -13 -11 -6 -32 13
-59 17 -67 9z"/>
<path d="M3432 1238 c-26 -26 -1 -91 29 -73 8 6 8 9 -1 15 -7 4 -13 22 -14 39
0 17 -1 31 -1 31 -1 0 -6 -5 -13 -12z"/>
<path d="M3562 1093 c6 -21 17 -42 25 -46 8 -5 18 -18 23 -30 7 -17 9 -12 9
25 1 40 -3 49 -28 67 -39 28 -41 27 -29 -16z"/>
<path d="M3461 1061 l-25 -7 29 -22 c15 -12 31 -20 34 -17 3 4 0 10 -7 14 -7
4 -10 15 -6 24 3 9 5 17 3 16 -2 -1 -15 -4 -28 -8z"/>
</g>
</svg>
