<?xml version="1.0" standalone="no"?>
<!DOCTYPE svg PUBLIC "-//W3C//DTD SVG 20010904//EN"
 "http://www.w3.org/TR/2001/REC-SVG-20010904/DTD/svg10.dtd">
<svg version="1.0" xmlns="http://www.w3.org/2000/svg"
 width="800" height="800" viewBox="0 0 1200.000000 1200.000000"
 preserveAspectRatio="xMidYMid meet">

<g transform="translate(0.000000,1200.000000) scale(0.100000,-0.100000)"
fill="#000000" stroke="none">
<path d="M5625 8664 c-148 -86 -378 -218 -510 -294 -132 -76 -454 -261 -715
-411 -261 -150 -583 -334 -715 -410 -132 -76 -248 -143 -258 -151 -17 -12 -17
-51 -15 -679 l3 -666 365 209 c201 116 550 316 775 446 226 129 543 311 705
405 162 93 375 215 472 270 l178 102 0 668 c0 367 -3 667 -7 667 -5 -1 -129
-71 -278 -156z"/>
<path d="M6082 8154 l3 -666 340 -196 c187 -107 486 -279 665 -382 l325 -186
3 -770 2 -770 63 -35 c34 -20 295 -169 579 -332 285 -163 520 -297 523 -297 3
0 4 647 3 1437 l-3 1437 -455 261 c-250 144 -642 369 -870 500 -228 131 -582
334 -787 451 -205 118 -377 214 -383 214 -7 0 -9 -206 -8 -666z"/>
<path d="M4710 5130 c0 -781 2 -1420 5 -1420 3 0 121 67 263 149 141 82 397
230 567 328 l310 180 3 766 2 766 -22 12 c-13 6 -269 153 -570 325 -301 173
-550 314 -553 314 -3 0 -5 -639 -5 -1420z"/>
<path d="M4445 6451 c-44 -26 -249 -145 -455 -263 -206 -119 -401 -231 -432
-249 -32 -18 -55 -36 -50 -40 7 -7 94 -58 770 -447 l262 -151 0 599 c0 330 -3
600 -7 599 -5 -1 -44 -22 -88 -48z"/>
<path d="M7030 4856 c-386 -226 -1811 -1054 -2012 -1170 -87 -50 -158 -94
-158 -98 0 -3 257 -153 570 -332 l570 -326 338 193 c328 189 1230 707 1722
990 483 277 446 253 419 270 -22 14 -261 151 -905 520 -121 70 -227 127 -235
126 -8 0 -147 -78 -309 -173z"/>
</g>
</svg>
