<?xml version="1.0" standalone="no"?>
<!DOCTYPE svg PUBLIC "-//W3C//DTD SVG 20010904//EN"
 "http://www.w3.org/TR/2001/REC-SVG-20010904/DTD/svg10.dtd">
<svg version="1.0" xmlns="http://www.w3.org/2000/svg"
 width="250.000000pt" height="250.000000pt" viewBox="0 0 250.000000 250.000000"
 preserveAspectRatio="xMidYMid meet">

<g transform="translate(0.000000,250.000000) scale(0.100000,-0.100000)"
fill="#000000" stroke="none">
<path d="M725 1823 c-57 -62 -101 -136 -133 -225 l-27 -73 -3 -462 c-2 -309 0
-469 7 -482 13 -23 361 -201 394 -201 30 0 67 39 66 71 0 21 -20 34 -166 104
-91 44 -176 90 -190 102 l-24 23 3 462 3 463 26 75 c14 41 42 101 62 133 20
31 34 57 31 57 -3 0 -25 -21 -49 -47z"/>
<path d="M1553 1366 c-95 -61 -113 -75 -113 -87 0 -15 19 -10 60 16 48 30 60
31 60 4 0 -11 3 -19 8 -17 82 40 82 39 82 90 0 26 -3 48 -7 47 -5 0 -45 -24
-90 -53z"/>
<path d="M930 1368 l0 -43 85 -49 c47 -27 87 -57 90 -66 3 -10 7 -135 9 -278
l3 -261 29 -25 c49 -43 81 -35 155 35 35 33 53 53 39 45 -43 -28 -71 -20 -143
42 l-69 57 6 235 6 236 -93 54 c-50 30 -98 56 -104 58 -9 2 -13 -10 -13 -40z"/>
<path d="M1454 1009 l7 -171 -42 -41 -41 -41 4 -161 c3 -88 8 -167 12 -177 4
-9 21 -22 38 -29 29 -12 39 -8 215 82 170 87 210 114 201 139 -2 6 -69 -24
-150 -65 -148 -76 -180 -84 -207 -52 -14 18 -20 149 -21 430 0 187 -3 257 -12
257 -8 0 -9 -44 -4 -171z"/>
</g>
</svg>
