
<svg xmlns="http://www.w3.org/2000/svg" xmlns:xlink="http://www.w3.org/1999/xlink" width="250" zoomAndPan="magnify" viewBox="0 0 187.5 187.499992" height="250" preserveAspectRatio="xMidYMid meet" version="1.0"><defs><clipPath id="08f3638524"><path d="M 100 27.707031 L 118 27.707031 L 118 32 L 100 32 Z M 100 27.707031 " clip-rule="nonzero"/></clipPath><clipPath id="6eb93b8a78"><path d="M 79 27.707031 L 98 27.707031 L 98 31 L 79 31 Z M 79 27.707031 " clip-rule="nonzero"/></clipPath><clipPath id="67bef564f9"><path d="M 12.214844 90 L 16 90 L 16 109 L 12.214844 109 Z M 12.214844 90 " clip-rule="nonzero"/></clipPath><clipPath id="de5d9f58c0"><path d="M 12.214844 103 L 14 103 L 14 121 L 12.214844 121 Z M 12.214844 103 " clip-rule="nonzero"/></clipPath><clipPath id="76e6676be8"><path d="M 27 150 L 39 150 L 39 159.707031 L 27 159.707031 Z M 27 150 " clip-rule="nonzero"/></clipPath><clipPath id="da442b653d"><path d="M 173 80 L 174.964844 80 L 174.964844 90 L 173 90 Z M 173 80 " clip-rule="nonzero"/></clipPath><clipPath id="049b33fe35"><path d="M 173 80 L 174.964844 80 L 174.964844 84 L 173 84 Z M 173 80 " clip-rule="nonzero"/></clipPath><clipPath id="e9bae47247"><path d="M 173 80 L 174.964844 80 L 174.964844 85 L 173 85 Z M 173 80 " clip-rule="nonzero"/></clipPath></defs><path fill="#ffffff" d="M 60.074219 36.40625 C 60.21875 35.945312 60.425781 35.652344 60.703125 35.523438 L 64.410156 33.90625 C 67.890625 32.648438 72.578125 31.085938 76.140625 30.082031 L 77.890625 29.679688 C 77.597656 29.796875 77.375 30.089844 77.226562 30.570312 C 74.558594 31.5 71.003906 32.769531 68.398438 33.871094 C 65.886719 34.570312 62.535156 35.527344 60.074219 36.40625 " fill-opacity="1" fill-rule="nonzero"/><path fill="#ffffff" d="M 42.714844 47.238281 C 42.820312 46.894531 42.964844 46.644531 43.148438 46.496094 L 43.210938 46.445312 C 50.21875 41.207031 50.355469 41.105469 54.292969 38.84375 L 58.179688 36.75 C 57.917969 36.882812 57.714844 37.171875 57.578125 37.617188 C 55.167969 39.15625 51.964844 41.234375 49.660156 42.925781 C 47.542969 44.164062 44.730469 45.839844 42.714844 47.238281 " fill-opacity="1" fill-rule="nonzero"/><path fill="#ffffff" d="M 171.867188 76.207031 L 171.9375 76.257812 L 173.5625 80.171875 L 171.867188 76.207031 " fill-opacity="1" fill-rule="nonzero"/><path fill="#ffffff" d="M 166.589844 67 C 166.617188 66.910156 166.65625 66.859375 166.710938 66.839844 C 168.089844 69.171875 169.910156 72.300781 171.148438 74.710938 L 173.5625 80.171875 L 171.050781 74.839844 C 169.753906 72.464844 168 69.308594 166.589844 67 " fill-opacity="1" fill-rule="nonzero"/><path fill="#ffffff" d="M 153.640625 51.519531 C 153.703125 51.320312 153.796875 51.199219 153.917969 51.152344 C 155.792969 53.019531 158.277344 55.53125 160.039062 57.503906 C 161.628906 59.59375 163.730469 62.390625 165.214844 64.554688 C 165.152344 64.578125 165.105469 64.640625 165.074219 64.742188 C 163.484375 62.707031 161.339844 60 159.621094 58.066406 C 157.859375 56.074219 155.492188 53.429688 153.640625 51.519531 " fill-opacity="1" fill-rule="nonzero"/><path fill="#ffffff" d="M 137.6875 39.746094 C 137.777344 39.449219 137.914062 39.269531 138.097656 39.195312 C 140.359375 40.554688 143.363281 42.390625 145.542969 43.882812 C 147.5 45.484375 150.101562 47.640625 151.972656 49.34375 C 151.84375 49.394531 151.746094 49.523438 151.679688 49.738281 C 149.660156 48.21875 146.949219 46.214844 144.835938 44.835938 C 142.714844 43.273438 139.875 41.207031 137.6875 39.746094 " fill-opacity="1" fill-rule="nonzero"/><path fill="#ffffff" d="M 119.53125 32.015625 C 119.648438 31.636719 119.824219 31.402344 120.058594 31.3125 C 122.59375 32.121094 125.976562 33.222656 128.460938 34.183594 C 130.6875 35.253906 133.652344 36.707031 135.8125 37.90625 C 135.625 37.980469 135.480469 38.171875 135.382812 38.480469 C 133.042969 37.523438 129.90625 36.265625 127.503906 35.46875 C 125.132812 34.390625 121.957031 32.96875 119.53125 32.015625 " fill-opacity="1" fill-rule="nonzero"/><g clip-path="url(#08f3638524)"><path fill="#ffffff" d="M 100 28.660156 C 100.132812 28.21875 100.335938 27.949219 100.609375 27.84375 C 103.238281 28.050781 106.75 28.347656 109.363281 28.714844 L 109.722656 28.773438 C 112.078125 29.265625 115.222656 29.949219 117.539062 30.589844 C 117.300781 30.683594 117.121094 30.921875 117.003906 31.3125 C 114.441406 30.945312 111.023438 30.488281 108.445312 30.300781 C 105.921875 29.757812 102.550781 29.054688 100 28.660156 " fill-opacity="1" fill-rule="nonzero"/></g><g clip-path="url(#6eb93b8a78)"><path fill="#ffffff" d="M 79.894531 30.015625 C 80.042969 29.539062 80.261719 29.246094 80.554688 29.132812 L 84.023438 28.535156 C 86.039062 28.324219 88.71875 27.960938 90.742188 27.828125 L 93.222656 27.703125 L 97.964844 27.734375 C 97.691406 27.839844 97.484375 28.113281 97.34375 28.5625 C 94.675781 28.828125 91.117188 29.210938 88.472656 29.660156 C 85.898438 29.703125 82.460938 29.796875 79.894531 30.015625 " fill-opacity="1" fill-rule="nonzero"/></g><path fill="#ffffff" d="M 28.933594 61.5 C 28.996094 61.292969 29.078125 61.121094 29.171875 60.992188 C 30.511719 59.355469 32.25 57.128906 33.65625 55.546875 C 35.832031 53.300781 38.769531 50.339844 41.082031 48.234375 C 40.910156 48.386719 40.773438 48.625 40.671875 48.949219 C 38.714844 50.945312 36.128906 53.628906 34.296875 55.738281 C 32.640625 57.421875 30.457031 59.695312 28.933594 61.5 " fill-opacity="1" fill-rule="nonzero"/><path fill="#ffffff" d="M 171.789062 76.472656 C 171.78125 76.414062 171.777344 76.363281 171.78125 76.324219 L 173.5625 80.171875 L 171.789062 76.472656 " fill-opacity="1" fill-rule="nonzero"/><path fill="#ffffff" d="M 160.683594 60.261719 C 160.644531 59.925781 160.628906 59.644531 160.640625 59.421875 C 162.28125 61.402344 164.449219 64.066406 165.957031 66.144531 C 167.367188 68.445312 169.230469 71.527344 170.527344 73.890625 C 170.527344 73.957031 170.53125 74.039062 170.542969 74.132812 C 169.234375 72.035156 167.464844 69.25 166.015625 67.246094 C 164.445312 65.128906 161.699219 62.695312 160.683594 60.261719 " fill-opacity="1" fill-rule="nonzero"/><path fill="#ffffff" d="M 146.152344 47.488281 C 146.085938 46.898438 146.0625 46.410156 146.078125 46.015625 C 148.132812 47.449219 150.851562 49.386719 152.804688 50.953125 C 154.660156 52.867188 157.117188 55.4375 158.886719 57.433594 C 158.875 57.679688 158.890625 57.992188 158.933594 58.363281 C 157.171875 56.820312 154.804688 54.777344 152.929688 53.371094 C 150.921875 51.578125 147.4375 49.855469 146.152344 47.488281 " fill-opacity="1" fill-rule="nonzero"/><path fill="#ffffff" d="M 129.011719 38.445312 C 128.921875 37.640625 128.886719 36.972656 128.910156 36.4375 C 131.265625 37.289062 134.398438 38.457031 136.6875 39.472656 C 138.886719 40.949219 141.804688 42.941406 143.933594 44.515625 C 143.914062 44.929688 143.941406 45.445312 144.011719 46.0625 C 141.894531 45.101562 139.058594 43.839844 136.875 43.046875 C 134.535156 41.636719 131.40625 39.761719 129.011719 38.445312 " fill-opacity="1" fill-rule="nonzero"/><path fill="#ffffff" d="M 110.074219 33.441406 C 109.964844 32.46875 109.925781 31.65625 109.953125 31.007812 C 112.5 31.253906 115.898438 31.613281 118.421875 32.035156 C 120.859375 33.023438 124.097656 34.363281 126.480469 35.46875 C 126.457031 36.023438 126.492188 36.710938 126.585938 37.539062 C 124.214844 37.183594 121.046875 36.738281 118.65625 36.566406 C 116.097656 35.589844 112.675781 34.304688 110.074219 33.441406 " fill-opacity="1" fill-rule="nonzero"/><path fill="#ffffff" d="M 90.15625 32.785156 C 90.03125 31.691406 89.984375 30.78125 90.015625 30.054688 C 92.652344 29.667969 96.171875 29.179688 98.824219 28.976562 C 101.390625 29.417969 104.808594 30.027344 107.34375 30.617188 C 107.316406 31.28125 107.359375 32.105469 107.472656 33.097656 C 104.949219 33.367188 101.589844 33.761719 99.097656 34.21875 C 96.421875 33.738281 92.851562 33.121094 90.15625 32.785156 " fill-opacity="1" fill-rule="nonzero"/><path fill="#ffffff" d="M 70.066406 36.773438 C 69.9375 35.625 69.886719 34.667969 69.917969 33.902344 C 72.53125 32.859375 76.03125 31.492188 78.707031 30.628906 C 81.292969 30.464844 84.75 30.273438 87.339844 30.28125 C 87.308594 31.015625 87.355469 31.9375 87.480469 33.039062 C 84.914062 33.953125 81.5 35.207031 79 36.292969 C 76.316406 36.378906 72.738281 36.515625 70.066406 36.773438 " fill-opacity="1" fill-rule="nonzero"/><path fill="#ffffff" d="M 51.121094 45.445312 C 50.992188 44.308594 50.945312 43.363281 50.976562 42.605469 C 53.332031 40.960938 56.492188 38.785156 58.949219 37.296875 C 61.429688 36.480469 64.75 35.421875 67.285156 34.792969 C 67.253906 35.558594 67.300781 36.519531 67.429688 37.667969 C 64.941406 39.226562 61.632812 41.335938 59.246094 43.050781 C 56.792969 43.707031 53.523438 44.613281 51.121094 45.445312 " fill-opacity="1" fill-rule="nonzero"/><path fill="#ffffff" d="M 35.46875 57.757812 C 35.347656 56.699219 35.304688 55.820312 35.332031 55.117188 C 37.222656 53.035156 39.765625 50.277344 41.777344 48.316406 C 43.820312 46.984375 46.558594 45.234375 48.695312 44.066406 C 48.664062 44.820312 48.710938 45.761719 48.839844 46.890625 C 46.765625 48.925781 44.015625 51.660156 42.058594 53.8125 C 40.050781 54.9375 37.378906 56.46875 35.46875 57.757812 " fill-opacity="1" fill-rule="nonzero"/><path fill="#ffffff" d="M 23.558594 72.890625 C 23.457031 71.972656 23.417969 71.207031 23.441406 70.59375 C 24.828125 68.199219 26.691406 65.015625 28.210938 62.703125 C 29.761719 60.953125 31.851562 58.640625 33.53125 57.015625 C 33.503906 57.710938 33.546875 58.578125 33.664062 59.621094 C 32.0625 61.996094 29.941406 65.179688 28.460938 67.632812 C 26.945312 69.164062 24.941406 71.234375 23.558594 72.890625 " fill-opacity="1" fill-rule="nonzero"/><path fill="#ffffff" d="M 15.730469 90.074219 C 15.648438 89.339844 15.617188 88.734375 15.640625 88.242188 C 16.472656 85.652344 17.605469 82.199219 18.578125 79.652344 C 19.601562 77.578125 20.996094 74.824219 22.167969 72.828125 C 22.140625 73.425781 22.179688 74.171875 22.277344 75.066406 C 21.1875 77.65625 19.753906 81.113281 18.789062 83.75 C 17.816406 85.617188 16.546875 88.128906 15.730469 90.074219 " fill-opacity="1" fill-rule="nonzero"/><g clip-path="url(#67bef564f9)"><path fill="#ffffff" d="M 12.316406 108.53125 C 12.257812 108.03125 12.238281 107.613281 12.25 107.277344 L 12.304688 106.398438 L 12.65625 102.40625 L 13.382812 97.355469 C 13.820312 95.355469 14.382812 92.679688 14.925781 90.707031 C 14.910156 91.175781 14.9375 91.761719 15.015625 92.464844 C 14.480469 95.140625 13.78125 98.710938 13.371094 101.40625 C 12.996094 103.535156 12.53125 106.382812 12.316406 108.53125 " fill-opacity="1" fill-rule="nonzero"/></g><path fill="#ffffff" d="M 166.832031 69.125 C 166.820312 69.078125 166.8125 69.035156 166.800781 68.988281 C 166.738281 68.71875 166.691406 68.472656 166.652344 68.253906 C 168.027344 70.289062 169.835938 73.015625 171.066406 75.140625 L 173.5625 80.171875 L 171.210938 75.828125 C 169.929688 73.796875 167.808594 71.320312 166.832031 69.125 " fill-opacity="1" fill-rule="nonzero"/><path fill="#ffffff" d="M 154.199219 56.398438 C 154.171875 56.296875 154.152344 56.195312 154.128906 56.09375 C 153.988281 55.472656 153.875 54.910156 153.785156 54.40625 C 155.597656 55.851562 157.992188 57.800781 159.683594 59.375 C 161.355469 61.40625 163.566406 64.128906 165.148438 66.226562 C 165.191406 66.484375 165.25 66.773438 165.324219 67.09375 C 165.335938 67.144531 165.347656 67.195312 165.359375 67.25 C 163.890625 65.75 161.90625 63.761719 160.3125 62.394531 C 158.5 60.574219 155.480469 58.625 154.199219 56.398438 " fill-opacity="1" fill-rule="nonzero"/><path fill="#ffffff" d="M 138.519531 47.050781 C 138.480469 46.898438 138.445312 46.746094 138.414062 46.59375 C 138.203125 45.664062 138.03125 44.824219 137.898438 44.070312 C 140.035156 44.90625 142.878906 46.046875 144.941406 47.050781 C 147.03125 48.757812 149.808594 51.042969 151.832031 52.828125 C 151.925781 53.367188 152.050781 53.964844 152.199219 54.632812 C 152.222656 54.738281 152.25 54.847656 152.273438 54.960938 C 150.421875 54.058594 147.929688 52.882812 146 52.164062 C 143.773438 50.605469 140.074219 49.28125 138.519531 47.050781 " fill-opacity="1" fill-rule="nonzero"/><path fill="#ffffff" d="M 120.59375 41.328125 C 120.546875 41.132812 120.503906 40.9375 120.460938 40.746094 C 120.191406 39.558594 119.972656 38.488281 119.804688 37.527344 C 122.164062 37.742188 125.3125 38.058594 127.648438 38.460938 C 130.054688 39.785156 133.253906 41.5625 135.609375 42.976562 C 135.746094 43.761719 135.921875 44.632812 136.140625 45.601562 C 136.175781 45.761719 136.214844 45.917969 136.25 46.078125 C 134.105469 45.796875 131.238281 45.449219 129.078125 45.359375 C 126.546875 44.121094 123.160156 42.488281 120.59375 41.328125 " fill-opacity="1" fill-rule="nonzero"/><path fill="#ffffff" d="M 101.230469 39.476562 C 101.175781 39.25 101.125 39.023438 101.074219 38.800781 C 100.761719 37.421875 100.511719 36.175781 100.316406 35.0625 C 102.796875 34.648438 106.113281 34.125 108.621094 33.902344 C 111.230469 34.78125 114.710938 35.96875 117.28125 36.960938 C 117.457031 37.941406 117.675781 39.042969 117.953125 40.257812 C 117.996094 40.453125 118.042969 40.652344 118.089844 40.855469 C 115.753906 41.199219 112.640625 41.6875 110.339844 42.207031 C 107.617188 41.351562 103.980469 40.230469 101.230469 39.476562 " fill-opacity="1" fill-rule="nonzero"/><path fill="#ffffff" d="M 81.230469 41.742188 C 81.171875 41.496094 81.117188 41.25 81.0625 41.007812 C 80.726562 39.515625 80.453125 38.164062 80.238281 36.957031 C 82.746094 35.914062 86.097656 34.546875 88.667969 33.675781 C 91.375 34.039062 94.984375 34.550781 97.667969 35.058594 C 97.867188 36.1875 98.121094 37.449219 98.4375 38.847656 C 98.488281 39.074219 98.542969 39.304688 98.59375 39.535156 C 96.171875 40.5 92.945312 41.816406 90.585938 42.933594 C 87.785156 42.535156 84.046875 42.019531 81.230469 41.742188 " fill-opacity="1" fill-rule="nonzero"/><path fill="#ffffff" d="M 61.4375 48.359375 C 61.378906 48.105469 61.320312 47.859375 61.265625 47.609375 C 60.921875 46.089844 60.640625 44.714844 60.425781 43.480469 C 62.84375 41.808594 66.089844 39.597656 68.605469 38.078125 C 71.289062 37.859375 74.878906 37.597656 77.574219 37.554688 C 77.785156 38.769531 78.0625 40.125 78.402344 41.628906 C 78.457031 41.875 78.511719 42.117188 78.570312 42.367188 C 76.152344 43.945312 72.941406 46.066406 70.613281 47.769531 C 67.859375 47.894531 64.183594 48.085938 61.4375 48.359375 " fill-opacity="1" fill-rule="nonzero"/><path fill="#ffffff" d="M 44.019531 58.695312 C 43.960938 58.453125 43.90625 58.214844 43.855469 57.976562 C 43.523438 56.519531 43.257812 55.199219 43.050781 54.019531 C 45.050781 51.890625 47.742188 49.074219 49.859375 47.066406 C 52.261719 46.289062 55.476562 45.28125 57.929688 44.679688 C 58.144531 45.90625 58.421875 47.277344 58.765625 48.796875 C 58.820312 49.042969 58.878906 49.292969 58.9375 49.546875 C 56.769531 51.625 53.898438 54.417969 51.835938 56.605469 C 49.476562 57.179688 46.335938 57.964844 44.019531 58.695312 " fill-opacity="1" fill-rule="nonzero"/><path fill="#ffffff" d="M 30.105469 71.8125 C 30.054688 71.59375 30.003906 71.378906 29.957031 71.167969 C 29.660156 69.851562 29.421875 68.664062 29.234375 67.605469 C 30.765625 65.164062 32.828125 61.925781 34.480469 59.566406 C 36.402344 58.339844 38.988281 56.726562 41.003906 55.664062 C 41.210938 56.828125 41.472656 58.132812 41.800781 59.582031 C 41.851562 59.8125 41.90625 60.050781 41.964844 60.289062 C 40.234375 62.699219 37.9375 65.917969 36.3125 68.398438 C 34.421875 69.367188 31.910156 70.6875 30.105469 71.8125 " fill-opacity="1" fill-rule="nonzero"/><path fill="#ffffff" d="M 20.042969 87 C 20 86.816406 19.957031 86.636719 19.917969 86.460938 C 19.671875 85.363281 19.472656 84.375 19.316406 83.488281 C 20.339844 80.859375 21.722656 77.367188 22.871094 74.792969 C 24.265625 73.1875 26.15625 71.070312 27.6875 69.597656 C 27.867188 70.636719 28.105469 71.804688 28.394531 73.089844 C 28.445312 73.300781 28.492188 73.511719 28.542969 73.726562 C 27.277344 76.320312 25.613281 79.785156 24.453125 82.429688 C 23.085938 83.753906 21.273438 85.546875 20.042969 87 " fill-opacity="1" fill-rule="nonzero"/><path fill="#ffffff" d="M 14.171875 103.539062 C 14.140625 103.402344 14.109375 103.265625 14.082031 103.132812 C 13.898438 102.316406 13.746094 101.574219 13.632812 100.914062 C 14.105469 98.222656 14.757812 94.636719 15.359375 91.972656 C 16.191406 90.074219 17.320312 87.546875 18.308594 85.726562 C 18.460938 86.585938 18.65625 87.546875 18.894531 88.609375 C 18.933594 88.78125 18.972656 88.957031 19.015625 89.132812 C 18.257812 91.78125 17.261719 95.320312 16.609375 98 C 15.820312 99.632812 14.792969 101.832031 14.171875 103.539062 " fill-opacity="1" fill-rule="nonzero"/><g clip-path="url(#de5d9f58c0)"><path fill="#ffffff" d="M 12.84375 120.710938 C 12.824219 120.628906 12.804688 120.546875 12.785156 120.46875 C 12.675781 119.976562 12.585938 119.53125 12.515625 119.132812 C 12.398438 116.496094 12.265625 112.980469 12.285156 110.34375 C 12.507812 108.222656 12.828125 105.398438 13.210938 103.300781 C 13.320312 103.929688 13.464844 104.632812 13.640625 105.414062 C 13.667969 105.539062 13.699219 105.664062 13.730469 105.792969 C 13.507812 108.378906 13.234375 111.824219 13.128906 114.417969 C 12.984375 116.300781 12.824219 118.820312 12.84375 120.710938 " fill-opacity="1" fill-rule="nonzero"/></g><path fill="#ffffff" d="M 172.007812 77.421875 C 171.976562 77.304688 171.945312 77.195312 171.917969 77.089844 L 173.5625 80.171875 L 172.007812 77.421875 " fill-opacity="1" fill-rule="nonzero"/><path fill="#ffffff" d="M 161.941406 65.664062 C 161.746094 65 161.570312 64.371094 161.414062 63.777344 C 162.925781 65.183594 164.921875 67.085938 166.300781 68.617188 C 167.667969 70.554688 169.476562 73.148438 170.753906 75.148438 C 170.796875 75.320312 170.847656 75.503906 170.90625 75.695312 C 169.777344 74.265625 168.253906 72.375 166.988281 71.070312 C 165.496094 69.429688 163.0625 67.578125 161.941406 65.664062 " fill-opacity="1" fill-rule="nonzero"/><path fill="#ffffff" d="M 148.347656 56.902344 C 148.007812 55.746094 147.699219 54.644531 147.429688 53.613281 C 149.292969 54.382812 151.773438 55.445312 153.558594 56.390625 C 155.433594 58.125 157.925781 60.445312 159.742188 62.242188 C 159.914062 62.894531 160.105469 63.59375 160.324219 64.324219 C 158.777344 63.503906 156.695312 62.429688 155.066406 61.789062 C 153.0625 60.304688 149.800781 58.929688 148.347656 56.902344 " fill-opacity="1" fill-rule="nonzero"/><path fill="#ffffff" d="M 132.007812 51.304688 C 131.542969 49.722656 131.125 48.21875 130.753906 46.8125 C 132.875 46.957031 135.703125 47.179688 137.800781 47.515625 C 140.082031 48.992188 143.117188 50.96875 145.351562 52.511719 C 145.636719 53.597656 145.960938 54.753906 146.320312 55.976562 C 144.4375 55.765625 141.921875 55.519531 140.03125 55.5 C 137.632812 54.222656 134.433594 52.527344 132.007812 51.304688 " fill-opacity="1" fill-rule="nonzero"/><path fill="#ffffff" d="M 113.710938 49.035156 C 113.144531 47.117188 112.636719 45.296875 112.1875 43.585938 C 114.46875 43.117188 117.523438 42.519531 119.835938 42.226562 C 122.410156 43.382812 125.839844 44.941406 128.382812 46.171875 C 128.765625 47.625 129.195312 49.175781 129.675781 50.808594 C 127.558594 51.210938 124.738281 51.777344 122.660156 52.347656 C 119.984375 51.332031 116.410156 49.988281 113.710938 49.035156 " fill-opacity="1" fill-rule="nonzero"/><path fill="#ffffff" d="M 74.351562 55.160156 C 73.6875 52.898438 73.085938 50.75 72.554688 48.734375 C 74.902344 47.082031 78.042969 44.890625 80.472656 43.363281 C 83.296875 43.671875 87.0625 44.101562 89.871094 44.527344 C 90.382812 46.464844 90.957031 48.527344 91.597656 50.699219 C 89.289062 52.253906 86.226562 54.34375 84 56.007812 C 81.109375 55.714844 77.25 55.339844 74.351562 55.160156 " fill-opacity="1" fill-rule="nonzero"/><path fill="#ffffff" d="M 55.359375 63.632812 C 54.703125 61.394531 54.109375 59.269531 53.582031 57.277344 C 55.691406 55.128906 58.527344 52.273438 60.742188 50.234375 C 63.492188 50.007812 67.167969 49.738281 69.925781 49.65625 C 70.457031 51.675781 71.058594 53.828125 71.726562 56.09375 C 69.472656 58.15625 66.484375 60.921875 64.324219 63.078125 C 61.632812 63.203125 58.042969 63.386719 55.359375 63.632812 " fill-opacity="1" fill-rule="nonzero"/><path fill="#ffffff" d="M 39.410156 74.671875 C 38.796875 72.59375 38.246094 70.617188 37.757812 68.761719 C 39.441406 66.308594 41.703125 63.050781 43.488281 60.675781 C 45.816406 60.015625 48.925781 59.160156 51.289062 58.648438 C 51.808594 60.628906 52.398438 62.742188 53.054688 64.964844 C 51.179688 67.335938 48.695312 70.507812 46.914062 72.945312 C 44.652344 73.417969 41.636719 74.0625 39.410156 74.671875 " fill-opacity="1" fill-rule="nonzero"/><path fill="#ffffff" d="M 26.988281 87.601562 C 26.457031 85.792969 25.976562 84.074219 25.554688 82.460938 C 26.773438 79.839844 28.421875 76.355469 29.742188 73.785156 C 31.566406 72.738281 34.019531 71.363281 35.921875 70.46875 C 36.402344 72.292969 36.949219 74.242188 37.550781 76.296875 C 36.101562 78.828125 34.179688 82.210938 32.816406 84.789062 C 31.042969 85.582031 28.683594 86.660156 26.988281 87.601562 " fill-opacity="1" fill-rule="nonzero"/><path fill="#ffffff" d="M 18.460938 101.785156 C 18.039062 100.34375 17.65625 98.976562 17.316406 97.691406 C 18.042969 95.03125 19.027344 91.488281 19.851562 88.859375 C 21.117188 87.480469 22.828125 85.65625 24.222656 84.410156 C 24.636719 85.980469 25.105469 87.660156 25.625 89.425781 C 24.632812 91.988281 23.316406 95.410156 22.402344 98 C 21.175781 99.089844 19.554688 100.5625 18.460938 101.785156 " fill-opacity="1" fill-rule="nonzero"/><path fill="#ffffff" d="M 14.191406 116.582031 C 13.898438 115.59375 13.636719 114.652344 13.40625 113.769531 C 13.59375 111.195312 13.859375 107.761719 14.15625 105.195312 C 14.8125 103.546875 15.71875 101.359375 16.542969 99.792969 C 16.867188 101.027344 17.234375 102.339844 17.640625 103.726562 C 17.132812 106.191406 16.46875 109.484375 16.046875 111.96875 C 15.429688 113.324219 14.632812 115.15625 14.191406 116.582031 " fill-opacity="1" fill-rule="nonzero"/><path fill="#ffffff" d="M 14.542969 131.363281 C 14.402344 130.886719 14.277344 130.4375 14.167969 130.011719 C 13.773438 127.640625 13.273438 124.472656 13.007812 122.082031 C 13.019531 120.234375 13.050781 117.769531 13.230469 115.929688 C 13.445312 116.753906 13.691406 117.632812 13.964844 118.558594 C 13.972656 120.816406 14.003906 123.828125 14.125 126.082031 C 14.191406 127.667969 14.316406 129.789062 14.542969 131.363281 " fill-opacity="1" fill-rule="nonzero"/><path fill="#ffffff" d="M 15.171875 134.179688 L 14.808594 132.828125 L 14.636719 132.144531 C 14.730469 132.503906 14.839844 132.882812 14.957031 133.289062 L 15.617188 135.738281 C 15.480469 135.269531 15.300781 134.648438 15.171875 134.179688 " fill-opacity="1" fill-rule="nonzero"/><path fill="#ffffff" d="M 168.050781 73.285156 C 167.894531 72.820312 167.75 72.371094 167.617188 71.9375 C 168.800781 73.265625 170.355469 75.0625 171.398438 76.5 L 173.5625 80.171875 L 171.742188 77.578125 C 170.660156 76.269531 168.910156 74.75 168.050781 73.285156 " fill-opacity="1" fill-rule="nonzero"/><path fill="#ffffff" d="M 156.992188 65.953125 C 156.640625 64.886719 156.304688 63.851562 155.996094 62.863281 C 157.566406 63.539062 159.652344 64.480469 161.128906 65.335938 C 162.695312 66.886719 164.777344 68.960938 166.285156 70.570312 C 166.441406 71.078125 166.613281 71.609375 166.796875 72.15625 C 165.585938 71.460938 163.945312 70.554688 162.644531 70.042969 C 160.960938 68.800781 158.242188 67.632812 156.992188 65.953125 " fill-opacity="1" fill-rule="nonzero"/><path fill="#ffffff" d="M 142.703125 61.359375 C 142.171875 59.757812 141.671875 58.210938 141.210938 56.726562 C 143.066406 56.785156 145.550781 56.890625 147.390625 57.144531 C 149.445312 58.546875 152.179688 60.421875 154.199219 61.875 C 154.53125 62.933594 154.886719 64.042969 155.265625 65.183594 C 153.675781 65.09375 151.546875 65.011719 149.957031 65.113281 C 147.785156 63.976562 144.304688 63.214844 142.703125 61.359375 " fill-opacity="1" fill-rule="nonzero"/><path fill="#ffffff" d="M 125.929688 59.566406 C 125.253906 57.527344 124.617188 55.554688 124.027344 53.664062 C 126.09375 53.128906 128.851562 52.441406 130.953125 52.078125 C 133.390625 53.28125 136.640625 54.890625 139.050781 56.140625 C 139.53125 57.683594 140.050781 59.292969 140.601562 60.957031 C 138.730469 61.460938 136.238281 62.167969 134.414062 62.832031 C 131.875 61.839844 128.484375 60.523438 125.929688 59.566406 " fill-opacity="1" fill-rule="nonzero"/><path fill="#ffffff" d="M 107.429688 60.660156 C 106.640625 58.289062 105.902344 56 105.21875 53.804688 C 107.410156 52.707031 110.339844 51.257812 112.597656 50.296875 C 115.304688 51.234375 118.917969 52.496094 121.609375 53.496094 C 122.210938 55.433594 122.863281 57.453125 123.558594 59.546875 C 121.496094 60.609375 118.757812 62.058594 116.765625 63.242188 C 113.96875 62.453125 110.238281 61.402344 107.429688 60.660156 " fill-opacity="1" fill-rule="nonzero"/><path fill="#ffffff" d="M 87.949219 64.707031 C 87.097656 62.136719 86.296875 59.65625 85.554688 57.273438 C 87.792969 55.640625 90.789062 53.480469 93.101562 51.957031 C 95.96875 52.5625 99.792969 53.382812 102.644531 54.070312 C 103.335938 56.300781 104.085938 58.621094 104.882812 61.023438 C 102.71875 62.601562 99.84375 64.722656 97.75 66.394531 C 94.8125 65.863281 90.898438 65.167969 87.949219 64.707031 " fill-opacity="1" fill-rule="nonzero"/><path fill="#ffffff" d="M 68.285156 71.765625 C 67.417969 69.148438 66.601562 66.617188 65.84375 64.191406 C 68.035156 62.066406 70.96875 59.246094 73.246094 57.210938 C 76.152344 57.410156 80.023438 57.6875 82.921875 57.996094 C 83.667969 60.386719 84.472656 62.886719 85.332031 65.46875 C 83.140625 67.503906 80.234375 70.222656 78.113281 72.324219 C 75.164062 72.128906 71.234375 71.875 68.285156 71.765625 " fill-opacity="1" fill-rule="nonzero"/><path fill="#ffffff" d="M 36.015625 92.007812 C 35.265625 89.746094 34.5625 87.5625 33.910156 85.472656 C 35.320312 82.914062 37.21875 79.511719 38.710938 77.003906 C 40.929688 76.449219 43.898438 75.734375 46.148438 75.3125 C 46.863281 77.613281 47.636719 80.015625 48.460938 82.496094 C 46.84375 84.964844 44.699219 88.261719 43.144531 90.769531 C 41 91.101562 38.136719 91.554688 36.015625 92.007812 " fill-opacity="1" fill-rule="nonzero"/><path fill="#ffffff" d="M 24.972656 103.851562 C 24.347656 101.96875 23.761719 100.144531 23.21875 98.398438 C 24.183594 95.828125 25.484375 92.40625 26.527344 89.867188 C 28.226562 88.992188 30.503906 87.851562 32.273438 87.125 C 32.914062 89.179688 33.601562 91.320312 34.335938 93.535156 C 33.125 95.996094 31.515625 99.28125 30.359375 101.769531 C 28.726562 102.347656 26.550781 103.132812 24.972656 103.851562 " fill-opacity="1" fill-rule="nonzero"/><path fill="#ffffff" d="M 17.855469 116.125 C 17.390625 114.71875 16.953125 113.355469 16.542969 112.050781 C 17.023438 109.589844 17.679688 106.3125 18.246094 103.867188 C 19.351562 102.714844 20.859375 101.199219 22.09375 100.179688 C 22.621094 101.875 23.1875 103.640625 23.796875 105.46875 C 23.019531 107.800781 21.988281 110.914062 21.269531 113.261719 C 20.207031 114.074219 18.796875 115.175781 17.855469 116.125 " fill-opacity="1" fill-rule="nonzero"/><path fill="#ffffff" d="M 15.058594 128.285156 C 14.777344 127.4375 14.511719 126.617188 14.269531 125.832031 C 14.21875 123.601562 14.175781 120.621094 14.234375 118.386719 C 14.695312 117.011719 15.339844 115.183594 15.980469 113.886719 C 16.367188 115.125 16.785156 116.421875 17.230469 117.757812 C 16.917969 119.847656 16.511719 122.636719 16.28125 124.738281 C 15.847656 125.777344 15.304688 127.1875 15.058594 128.285156 " fill-opacity="1" fill-rule="nonzero"/><path fill="#ffffff" d="M 16.476562 138.464844 C 16.3125 137.953125 16.089844 137.273438 15.929688 136.761719 L 15.796875 136.332031 L 14.863281 132.789062 C 14.644531 131.253906 14.367188 129.195312 14.316406 127.640625 C 14.539062 128.351562 14.777344 129.09375 15.03125 129.863281 C 15.222656 131.609375 15.484375 133.945312 15.792969 135.675781 C 15.996094 136.511719 16.210938 137.644531 16.476562 138.464844 " fill-opacity="1" fill-rule="nonzero"/><path fill="#ffffff" d="M 172.476562 78.820312 C 172.421875 78.671875 172.367188 78.527344 172.320312 78.386719 L 173.5625 80.171875 L 172.476562 78.820312 " fill-opacity="1" fill-rule="nonzero"/><path fill="#ffffff" d="M 164.582031 73.613281 C 164.277344 72.769531 163.984375 71.945312 163.707031 71.144531 C 164.929688 71.695312 166.550781 72.46875 167.671875 73.199219 C 168.816406 74.40625 170.332031 76.015625 171.414062 77.277344 C 171.496094 77.511719 171.578125 77.75 171.667969 77.992188 C 170.847656 77.453125 169.726562 76.753906 168.808594 76.410156 C 167.546875 75.5625 165.527344 74.804688 164.582031 73.613281 " fill-opacity="1" fill-rule="nonzero"/><path fill="#ffffff" d="M 152.949219 70.761719 C 152.417969 69.292969 151.910156 67.855469 151.425781 66.457031 C 152.96875 66.394531 155.035156 66.339844 156.574219 66.472656 C 158.292969 67.628906 160.582031 69.179688 162.273438 70.375 C 162.578125 71.261719 162.902344 72.171875 163.234375 73.101562 C 161.980469 73.164062 160.304688 73.292969 159.074219 73.539062 C 157.238281 72.703125 154.789062 71.589844 152.949219 70.761719 " fill-opacity="1" fill-rule="nonzero"/><path fill="#ffffff" d="M 138.292969 70.230469 C 137.570312 68.222656 136.875 66.261719 136.214844 64.347656 C 138.011719 63.71875 140.417969 62.898438 142.265625 62.425781 C 144.457031 63.496094 147.382812 64.929688 149.558594 66.027344 C 150.070312 67.5 150.605469 69.011719 151.164062 70.558594 C 149.582031 71.207031 147.480469 72.097656 145.960938 72.878906 C 143.660156 72.082031 140.59375 71.019531 138.292969 70.230469 " fill-opacity="1" fill-rule="nonzero"/><path fill="#ffffff" d="M 102.773438 75.992188 C 101.789062 73.265625 100.84375 70.597656 99.945312 67.996094 C 102.035156 66.351562 104.835938 64.171875 106.996094 62.617188 C 109.8125 63.351562 113.566406 64.339844 116.375 65.117188 C 117.191406 67.480469 118.046875 69.910156 118.941406 72.386719 C 116.964844 74.027344 114.332031 76.226562 112.414062 77.941406 C 109.523438 77.34375 105.667969 76.558594 102.773438 75.992188 " fill-opacity="1" fill-rule="nonzero"/><path fill="#ffffff" d="M 64.246094 90.394531 C 63.222656 87.558594 62.238281 84.78125 61.304688 82.078125 C 63.261719 79.699219 65.886719 76.535156 67.917969 74.21875 C 70.867188 74.359375 74.804688 74.5625 77.75 74.78125 C 78.695312 77.523438 79.691406 80.335938 80.726562 83.207031 C 78.648438 85.539062 75.886719 88.65625 73.863281 91.035156 C 70.980469 90.828125 67.132812 90.554688 64.246094 90.394531 " fill-opacity="1" fill-rule="nonzero"/><path fill="#ffffff" d="M 47.675781 99.566406 C 46.722656 96.929688 45.808594 94.347656 44.941406 91.832031 C 46.542969 89.34375 48.683594 86.035156 50.34375 83.589844 C 52.929688 83.46875 56.375 83.328125 58.964844 83.300781 C 59.890625 85.988281 60.867188 88.75 61.886719 91.566406 C 60.113281 93.980469 57.753906 97.207031 56.023438 99.65625 C 53.519531 99.601562 50.179688 99.542969 47.675781 99.566406 " fill-opacity="1" fill-rule="nonzero"/><path fill="#ffffff" d="M 34.175781 109.253906 C 33.347656 106.960938 32.554688 104.714844 31.800781 102.527344 C 33.007812 100.058594 34.628906 96.773438 35.894531 94.335938 C 38.019531 93.957031 40.859375 93.472656 43.003906 93.207031 C 43.859375 95.6875 44.757812 98.234375 45.699219 100.832031 C 44.273438 103.199219 42.378906 106.355469 40.988281 108.742188 C 38.941406 108.863281 36.214844 109.035156 34.175781 109.253906 " fill-opacity="1" fill-rule="nonzero"/><path fill="#ffffff" d="M 18.125 128.429688 C 17.671875 127.175781 17.234375 125.945312 16.824219 124.746094 C 17.132812 122.671875 17.5625 119.90625 17.941406 117.84375 C 18.917969 116.984375 20.242188 115.863281 21.324219 115.148438 C 21.902344 116.820312 22.511719 118.542969 23.144531 120.296875 C 22.511719 122.21875 21.671875 124.78125 21.078125 126.710938 C 20.164062 127.175781 18.945312 127.816406 18.125 128.429688 " fill-opacity="1" fill-rule="nonzero"/><path fill="#ffffff" d="M 16.429688 137.046875 C 16.214844 136.445312 16.003906 135.855469 15.808594 135.28125 C 15.601562 133.566406 15.34375 131.273438 15.246094 129.550781 C 15.535156 128.523438 15.949219 127.144531 16.421875 126.1875 C 16.808594 127.308594 17.214844 128.457031 17.640625 129.628906 C 17.453125 131.171875 17.210938 133.234375 17.09375 134.789062 C 16.828125 135.441406 16.507812 136.34375 16.429688 137.046875 " fill-opacity="1" fill-rule="nonzero"/><path fill="#ffffff" d="M 17.082031 140.207031 C 16.941406 139.804688 16.75 139.261719 16.613281 138.859375 L 16.027344 136.609375 C 16.195312 137.097656 16.375 137.597656 16.558594 138.109375 C 16.769531 138.894531 16.996094 139.957031 17.269531 140.722656 L 17.082031 140.207031 " fill-opacity="1" fill-rule="nonzero"/><path fill="#ffffff" d="M 169.957031 78.566406 C 169.75 78.027344 169.546875 77.5 169.351562 76.972656 C 170.195312 77.351562 171.316406 77.902344 172.054688 78.460938 L 173.5625 80.171875 L 172.539062 79.734375 C 171.761719 79.386719 170.539062 79.1875 169.957031 78.566406 " fill-opacity="1" fill-rule="nonzero"/><path fill="#ffffff" d="M 161.371094 78.085938 C 160.894531 76.851562 160.433594 75.628906 159.984375 74.425781 C 161.183594 74.203125 162.792969 73.929688 164.007812 73.894531 C 165.308594 74.671875 167.042969 75.710938 168.332031 76.507812 C 168.5625 77.125 168.800781 77.753906 169.042969 78.386719 C 168.148438 78.65625 166.957031 79.054688 166.117188 79.46875 C 164.691406 79.0625 162.789062 78.515625 161.371094 78.085938 " fill-opacity="1" fill-rule="nonzero"/><path fill="#ffffff" d="M 149.257812 79.519531 C 148.546875 77.671875 147.855469 75.84375 147.183594 74.039062 C 148.683594 73.273438 150.699219 72.265625 152.261719 71.636719 C 154.125 72.421875 156.609375 73.464844 158.46875 74.253906 C 158.949219 75.539062 159.445312 76.847656 159.953125 78.167969 C 158.691406 79.003906 157.027344 80.140625 155.835938 81.070312 C 153.859375 80.617188 151.226562 80.003906 149.257812 79.519531 " fill-opacity="1" fill-rule="nonzero"/><path fill="#ffffff" d="M 134.289062 82.722656 C 133.378906 80.367188 132.496094 78.035156 131.644531 75.742188 C 133.386719 74.476562 135.71875 72.800781 137.527344 71.636719 C 139.847656 72.386719 142.945312 73.394531 145.261719 74.148438 C 145.960938 76.019531 146.679688 77.925781 147.421875 79.847656 C 145.878906 81.175781 143.832031 82.964844 142.347656 84.363281 C 139.929688 83.878906 136.703125 83.230469 134.289062 82.722656 " fill-opacity="1" fill-rule="nonzero"/><path fill="#ffffff" d="M 117.136719 87.554688 C 116.082031 84.816406 115.054688 82.109375 114.0625 79.441406 C 115.976562 77.738281 118.535156 75.472656 120.511719 73.84375 C 123.183594 74.523438 126.742188 75.429688 129.414062 76.117188 C 130.289062 78.46875 131.195312 80.859375 132.125 83.273438 C 130.363281 85.023438 128.023438 87.367188 126.316406 89.167969 C 123.5625 88.6875 119.890625 88.042969 117.136719 87.554688 " fill-opacity="1" fill-rule="nonzero"/><path fill="#ffffff" d="M 79.011719 101.480469 C 77.847656 98.460938 76.714844 95.464844 75.617188 92.519531 C 77.660156 90.160156 80.394531 87.015625 82.484375 84.695312 C 85.511719 85.054688 89.546875 85.546875 92.566406 85.953125 C 93.648438 88.863281 94.769531 91.816406 95.917969 94.800781 C 93.914062 97.128906 91.242188 100.234375 89.257812 102.582031 C 86.1875 102.246094 82.089844 101.800781 79.011719 101.480469 " fill-opacity="1" fill-rule="nonzero"/><path fill="#ffffff" d="M 45.269531 117.644531 C 44.261719 115.035156 43.285156 112.453125 42.339844 109.910156 C 43.765625 107.542969 45.671875 104.390625 47.125 102.042969 C 49.613281 102.0625 52.929688 102.101562 55.417969 102.1875 C 56.457031 104.984375 57.53125 107.824219 58.640625 110.691406 C 57.03125 112.984375 54.894531 116.039062 53.300781 118.339844 C 50.894531 118.117188 47.679688 117.820312 45.269531 117.644531 " fill-opacity="1" fill-rule="nonzero"/><path fill="#ffffff" d="M 32.699219 125.25 C 31.859375 123.074219 31.042969 120.917969 30.253906 118.796875 C 31.308594 116.609375 32.722656 113.691406 33.804688 111.515625 C 35.824219 111.359375 38.519531 111.167969 40.542969 111.097656 C 41.46875 113.59375 42.429688 116.125 43.417969 118.683594 C 42.132812 120.761719 40.421875 123.53125 39.140625 125.609375 C 37.210938 125.476562 34.632812 125.3125 32.699219 125.25 " fill-opacity="1" fill-rule="nonzero"/><path fill="#ffffff" d="M 23.628906 132.109375 C 23 130.484375 22.390625 128.875 21.800781 127.289062 C 22.445312 125.382812 23.3125 122.847656 23.988281 120.953125 C 25.457031 120.609375 27.421875 120.179688 28.914062 119.953125 C 29.675781 122.011719 30.46875 124.101562 31.28125 126.210938 C 30.359375 127.96875 29.125 130.316406 28.199219 132.078125 C 26.828125 132.054688 25 132.035156 23.628906 132.109375 " fill-opacity="1" fill-rule="nonzero"/><path fill="#ffffff" d="M 18.527344 137.902344 C 18.152344 136.921875 17.785156 135.953125 17.429688 135 C 17.613281 133.480469 17.875 131.449219 18.117188 129.9375 C 18.945312 129.414062 20.074219 128.742188 20.976562 128.367188 C 21.535156 129.871094 22.117188 131.402344 22.710938 132.945312 C 22.183594 134.296875 21.484375 136.101562 20.964844 137.457031 C 20.230469 137.546875 19.238281 137.675781 18.527344 137.902344 " fill-opacity="1" fill-rule="nonzero"/><path fill="#ffffff" d="M 17.804688 142.144531 L 17.574219 141.539062 L 17.378906 141.015625 C 17.132812 140.125 16.789062 138.945312 16.628906 138.039062 C 16.726562 137.398438 16.886719 136.523438 17.179688 135.945312 C 17.503906 136.808594 17.835938 137.6875 18.175781 138.574219 C 18.078125 139.4375 17.953125 140.589844 17.921875 141.457031 C 17.847656 141.652344 17.75 141.941406 17.804688 142.144531 " fill-opacity="1" fill-rule="nonzero"/><path fill="#ffffff" d="M 173.097656 80.433594 C 173.03125 80.273438 172.96875 80.117188 172.90625 79.957031 L 173.5625 80.171875 L 173.097656 80.433594 " fill-opacity="1" fill-rule="nonzero"/><path fill="#ffffff" d="M 168.125 82.792969 C 167.753906 81.894531 167.394531 80.992188 167.039062 80.09375 C 167.832031 79.699219 168.90625 79.171875 169.761719 78.925781 C 170.542969 79.214844 171.585938 79.601562 172.378906 79.863281 C 172.480469 80.121094 172.585938 80.382812 172.691406 80.644531 C 172.214844 81.160156 171.597656 81.871094 171.175781 82.4375 C 170.265625 82.585938 169.042969 82.753906 168.125 82.792969 " fill-opacity="1" fill-rule="nonzero"/><path fill="#ffffff" d="M 146.726562 92.085938 C 145.851562 89.941406 144.988281 87.796875 144.140625 85.660156 C 145.597656 84.261719 147.546875 82.402344 149.066406 81.070312 C 151.042969 81.496094 153.683594 82.0625 155.667969 82.449219 C 156.320312 84.09375 156.984375 85.75 157.664062 87.402344 C 156.445312 88.917969 154.835938 90.945312 153.664062 92.496094 C 151.582031 92.398438 148.804688 92.253906 146.726562 92.085938 " fill-opacity="1" fill-rule="nonzero"/><path fill="#ffffff" d="M 131.558594 98.488281 C 130.492188 95.882812 129.445312 93.285156 128.421875 90.695312 C 130.109375 88.894531 132.367188 86.5 134.109375 84.75 C 136.53125 85.210938 139.765625 85.820312 142.195312 86.25 C 143.0625 88.453125 143.953125 90.664062 144.859375 92.878906 C 143.371094 94.773438 141.386719 97.304688 139.933594 99.226562 C 137.417969 99.023438 134.066406 98.742188 131.558594 98.488281 " fill-opacity="1" fill-rule="nonzero"/><path fill="#ffffff" d="M 58.773438 128.316406 C 57.617188 125.496094 56.480469 122.671875 55.371094 119.867188 C 56.996094 117.574219 59.160156 114.523438 60.796875 112.242188 C 63.589844 112.539062 67.316406 112.9375 70.109375 113.257812 C 71.292969 116.253906 72.507812 119.273438 73.742188 122.289062 C 71.980469 124.542969 69.628906 127.546875 67.863281 129.796875 C 65.136719 129.355469 61.5 128.761719 58.773438 128.316406 " fill-opacity="1" fill-rule="nonzero"/><path fill="#ffffff" d="M 31.867188 138.925781 C 31.066406 136.96875 30.28125 135.015625 29.511719 133.074219 C 30.484375 131.332031 31.777344 129.015625 32.746094 127.273438 C 34.671875 127.40625 37.246094 127.59375 39.171875 127.78125 C 40.113281 130.164062 41.078125 132.5625 42.058594 134.957031 C 40.855469 136.582031 39.246094 138.75 38.007812 140.347656 C 36.167969 139.914062 33.710938 139.332031 31.867188 138.925781 " fill-opacity="1" fill-rule="nonzero"/><path fill="#ffffff" d="M 23.402344 142.109375 C 22.855469 140.765625 22.3125 139.421875 21.785156 138.085938 C 22.363281 136.761719 23.132812 134.988281 23.710938 133.660156 C 25.078125 133.675781 26.902344 133.71875 28.265625 133.808594 C 29.003906 135.679688 29.761719 137.558594 30.53125 139.4375 C 29.667969 140.621094 28.515625 142.199219 27.609375 143.351562 C 26.351562 142.972656 24.671875 142.464844 23.402344 142.109375 " fill-opacity="1" fill-rule="nonzero"/><path fill="#ffffff" d="M 18.964844 143.613281 C 18.703125 142.96875 18.441406 142.324219 18.1875 141.683594 C 18.308594 140.84375 18.488281 139.726562 18.652344 138.894531 C 19.367188 138.777344 20.335938 138.660156 21.058594 138.652344 C 21.554688 139.898438 22.058594 141.15625 22.574219 142.410156 C 22.101562 143.082031 21.476562 143.980469 20.957031 144.613281 C 20.359375 144.316406 19.417969 144.105469 18.964844 143.613281 " fill-opacity="1" fill-rule="nonzero"/><path fill="#ffffff" d="M 18.527344 143.945312 C 18.203125 143.160156 18.203125 143.160156 18.046875 142.761719 L 17.917969 142.433594 C 17.941406 142.324219 17.972656 142.175781 17.996094 142.066406 L 18.046875 142.039062 C 18.261719 142.582031 18.480469 143.128906 18.707031 143.675781 C 18.664062 143.78125 18.65625 143.964844 18.558594 144.023438 L 18.527344 143.945312 " fill-opacity="1" fill-rule="nonzero"/><path fill="#ffffff" d="M 172.269531 84.230469 C 172.039062 83.691406 171.808594 83.148438 171.578125 82.601562 C 171.96875 82.019531 172.484375 81.238281 172.925781 80.695312 L 173.5625 80.171875 L 173.480469 81.996094 C 173.183594 82.699219 172.75 83.636719 172.269531 84.230469 " fill-opacity="1" fill-rule="nonzero"/><path fill="#ffffff" d="M 166.691406 91.085938 C 166.152344 89.851562 165.625 88.601562 165.097656 87.351562 C 165.894531 86.238281 166.964844 84.757812 167.8125 83.679688 C 168.761719 83.5625 170.035156 83.394531 170.957031 83.148438 C 171.230469 83.789062 171.5 84.429688 171.773438 85.066406 C 171.3125 86.355469 170.699219 88.078125 170.234375 89.367188 C 169.199219 89.9375 167.792969 90.664062 166.691406 91.085938 " fill-opacity="1" fill-rule="nonzero"/><path fill="#ffffff" d="M 157.21875 98.984375 C 156.417969 97.132812 155.625 95.265625 154.839844 93.390625 C 155.984375 91.824219 157.515625 89.738281 158.703125 88.207031 C 160.277344 88.203125 162.375 88.1875 163.941406 88.085938 C 164.503906 89.425781 165.070312 90.757812 165.644531 92.082031 C 164.785156 93.804688 163.648438 96.105469 162.804688 97.835938 C 161.140625 98.222656 158.910156 98.714844 157.21875 98.984375 " fill-opacity="1" fill-rule="nonzero"/><path fill="#ffffff" d="M 73.351562 140.144531 C 72.09375 137.242188 70.847656 134.3125 69.617188 131.371094 C 71.398438 129.125 73.773438 126.128906 75.546875 123.878906 C 78.558594 124.285156 82.574219 124.824219 85.585938 125.207031 C 86.867188 128.269531 88.164062 131.316406 89.472656 134.339844 C 87.597656 136.597656 85.097656 139.609375 83.203125 141.851562 C 80.246094 141.351562 76.300781 140.679688 73.351562 140.144531 " fill-opacity="1" fill-rule="nonzero"/><path fill="#ffffff" d="M 56.507812 145.121094 C 55.375 142.507812 54.253906 139.875 53.148438 137.226562 C 54.6875 135.265625 56.738281 132.648438 58.257812 130.667969 C 60.972656 131.136719 64.589844 131.761719 67.300781 132.230469 C 68.519531 135.140625 69.753906 138.039062 70.996094 140.910156 C 69.316406 142.839844 67.0625 145.410156 65.34375 147.304688 C 62.691406 146.65625 59.15625 145.789062 56.507812 145.121094 " fill-opacity="1" fill-rule="nonzero"/><path fill="#ffffff" d="M 42.078125 148.183594 C 41.132812 146.003906 40.199219 143.804688 39.273438 141.59375 C 40.53125 140.007812 42.203125 137.882812 43.429688 136.269531 C 45.742188 136.75 48.832031 137.398438 51.144531 137.894531 C 52.230469 140.492188 53.332031 143.078125 54.441406 145.640625 C 52.992188 147.160156 51.054688 149.183594 49.554688 150.652344 C 47.308594 149.914062 44.316406 148.929688 42.078125 148.183594 " fill-opacity="1" fill-rule="nonzero"/><path fill="#ffffff" d="M 30.632812 149.242188 C 29.929688 147.613281 29.230469 145.96875 28.539062 144.320312 C 29.46875 143.183594 30.699219 141.660156 31.585938 140.488281 C 33.40625 140.949219 35.835938 141.570312 37.65625 142.054688 C 38.550781 144.195312 39.460938 146.328125 40.375 148.441406 C 39.210938 149.484375 37.648438 150.871094 36.417969 151.839844 C 34.679688 151.0625 31.964844 150.597656 30.632812 149.242188 " fill-opacity="1" fill-rule="nonzero"/><path fill="#ffffff" d="M 22.746094 148.207031 C 22.320312 147.230469 21.898438 146.242188 21.484375 145.246094 C 22.035156 144.632812 22.753906 143.796875 23.253906 143.140625 C 24.492188 143.558594 26.144531 144.117188 27.378906 144.546875 C 28.035156 146.117188 28.699219 147.679688 29.371094 149.226562 C 28.539062 149.742188 27.421875 150.425781 26.519531 150.816406 C 25.378906 150.042969 23.605469 149.28125 22.746094 148.207031 " fill-opacity="1" fill-rule="nonzero"/><path fill="#ffffff" d="M 19.121094 145.351562 L 19.035156 145.152344 C 18.921875 144.890625 18.773438 144.542969 18.664062 144.28125 C 18.769531 144.234375 18.894531 144.132812 18.960938 144.039062 C 19.523438 144.40625 20.277344 144.882812 20.851562 145.226562 C 21.230469 146.125 21.609375 147.023438 21.996094 147.910156 C 21.519531 147.867188 20.859375 147.769531 20.445312 147.527344 C 20.03125 146.882812 19.4375 146.046875 19.121094 145.351562 " fill-opacity="1" fill-rule="nonzero"/><path fill="#ffffff" d="M 173.796875 82.046875 C 173.730469 81.898438 173.660156 81.746094 173.59375 81.59375 L 173.5625 80.171875 L 173.796875 82.046875 " fill-opacity="1" fill-rule="nonzero"/><path fill="#ffffff" d="M 172.105469 91.980469 C 171.71875 91.136719 171.328125 90.277344 170.941406 89.40625 C 171.34375 88.085938 171.875 86.328125 172.269531 85.003906 C 172.707031 84.308594 173.265625 83.339844 173.503906 82.554688 C 173.617188 82.804688 173.730469 83.054688 173.839844 83.296875 C 173.847656 84.816406 173.839844 86.835938 173.78125 88.351562 C 173.347656 89.46875 172.734375 90.960938 172.105469 91.980469 " fill-opacity="1" fill-rule="nonzero"/><g clip-path="url(#76e6676be8)"><path fill="#ffffff" d="M 29.339844 155.800781 C 28.761719 154.542969 28.179688 153.261719 27.601562 151.960938 C 28.535156 151.554688 29.765625 150.972656 30.632812 150.441406 C 32.359375 151.28125 34.664062 152.398438 36.402344 153.21875 C 37.210938 155.039062 38.023438 156.832031 38.832031 158.589844 C 37.644531 158.976562 36.046875 159.472656 34.816406 159.6875 C 33.160156 158.539062 30.613281 157.363281 29.339844 155.800781 " fill-opacity="1" fill-rule="nonzero"/></g><path fill="#ffffff" d="M 21.8125 150.183594 C 21.535156 149.578125 21.257812 148.964844 20.980469 148.339844 C 21.484375 148.550781 22.191406 148.796875 22.738281 148.800781 C 23.855469 149.660156 25.351562 150.796875 26.496094 151.617188 C 27.035156 152.832031 27.578125 154.027344 28.117188 155.203125 C 27.226562 154.988281 26.03125 154.667969 25.210938 154.261719 C 24.164062 153.0625 22.632812 151.546875 21.8125 150.183594 " fill-opacity="1" fill-rule="nonzero"/><path fill="#ffffff" d="M 19.609375 146.453125 C 19.503906 146.214844 19.363281 145.902344 19.257812 145.664062 C 19.597656 146.273438 20.023438 147.105469 20.414062 147.683594 C 20.648438 148.214844 20.886719 148.734375 21.121094 149.246094 L 20.070312 147.460938 C 19.933594 147.160156 19.746094 146.757812 19.609375 146.453125 " fill-opacity="1" fill-rule="nonzero"/><g clip-path="url(#da442b653d)"><path fill="#ffffff" d="M 174.695312 89.488281 C 174.480469 89.050781 174.253906 88.585938 174.019531 88.09375 L 174.015625 88.082031 C 174.003906 86.53125 173.984375 84.464844 173.894531 82.917969 L 173.5625 80.171875 L 174.4375 84.039062 C 174.582031 85.667969 174.75 87.851562 174.695312 89.488281 " fill-opacity="1" fill-rule="nonzero"/></g><g clip-path="url(#049b33fe35)"><path fill="#ffffff" d="M 174.453125 83.367188 C 174.398438 83.269531 174.339844 83.160156 174.28125 83.042969 L 173.5625 80.171875 L 174.453125 83.367188 " fill-opacity="1" fill-rule="nonzero"/></g><g clip-path="url(#e9bae47247)"><path fill="#ffffff" d="M 174.910156 84.097656 C 174.878906 84.058594 174.839844 84.007812 174.800781 83.953125 L 173.5625 80.171875 L 174.910156 84.097656 " fill-opacity="1" fill-rule="nonzero"/></g></svg>