<?xml version="1.0" standalone="no"?>
<!DOCTYPE svg PUBLIC "-//W3C//DTD SVG 20010904//EN"
 "http://www.w3.org/TR/2001/REC-SVG-20010904/DTD/svg10.dtd">
<svg version="1.0" xmlns="http://www.w3.org/2000/svg"
 width="200.000000pt" height="200.000000pt" viewBox="0 0 200.000000 200.000000"
 preserveAspectRatio="xMidYMid meet">

<g transform="translate(0.000000,200.000000) scale(0.100000,-0.100000)"
fill="#000000" stroke="none">
<path d="M820 1945 c0 -12 14 -15 70 -15 56 0 70 3 70 15 0 12 -14 15 -70 15
-56 0 -70 -3 -70 -15z"/>
<path d="M702 1908 c-3 -13 -14 -18 -38 -18 -22 0 -34 -5 -34 -14 0 -7 -9 -16
-20 -19 -11 -3 -20 -12 -20 -21 0 -9 -7 -16 -15 -16 -8 0 -15 -9 -15 -20 0
-13 -7 -20 -20 -20 -13 0 -20 -7 -20 -20 0 -11 -6 -19 -12 -17 -8 1 -14 -12
-16 -35 -2 -23 -8 -38 -16 -38 -18 0 -26 -32 -26 -112 0 -61 -2 -68 -20 -68
-12 0 -20 -7 -20 -16 0 -14 -3 -14 -16 -4 -12 11 -15 11 -12 -1 2 -9 -7 -15
-24 -17 -19 -2 -25 -8 -21 -18 4 -10 -4 -14 -31 -14 -29 0 -36 -4 -36 -19 0
-11 -9 -21 -21 -24 -12 -3 -18 -10 -14 -17 4 -7 -2 -14 -14 -17 -12 -3 -21
-11 -21 -18 0 -7 -9 -24 -20 -38 -11 -14 -20 -32 -20 -41 0 -9 -7 -16 -15 -16
-13 0 -15 -22 -15 -140 0 -118 2 -140 15 -140 11 0 15 -11 15 -36 0 -27 5 -37
20 -41 11 -3 20 -14 20 -24 0 -11 7 -19 15 -19 8 0 15 -7 15 -15 0 -8 9 -15
20 -15 13 0 20 -7 20 -20 0 -15 7 -20 25 -20 16 0 23 -4 19 -14 -4 -10 8 -15
42 -19 28 -3 51 -11 56 -21 8 -14 34 -16 188 -16 l180 0 2 -282 c3 -240 5
-282 18 -285 12 -4 12 -3 1 5 -8 6 -9 11 -3 13 6 2 12 33 13 69 4 87 9 110 25
110 10 0 14 14 14 51 0 31 -4 48 -10 44 -9 -6 -11 -1 -14 38 -1 6 5 11 12 10
9 -2 12 26 12 115 l0 118 55 -4 c44 -3 55 -1 55 11 0 10 -14 18 -39 22 -29 5
-38 11 -34 21 3 9 -2 14 -16 14 -20 0 -21 5 -21 106 0 81 3 109 14 118 8 6 18
23 22 39 l6 27 -79 0 -79 0 4 -35 c3 -21 10 -35 18 -35 21 0 20 -205 -1 -214
-8 -3 -15 -12 -15 -20 0 -11 -19 -16 -74 -21 -98 -9 -216 2 -216 21 0 9 -12
14 -35 14 -28 0 -35 4 -35 20 0 13 -7 20 -19 20 -11 0 -21 9 -24 21 -3 12 -10
18 -16 15 -5 -4 -11 4 -13 16 -2 13 -10 23 -18 23 -10 0 -16 12 -18 38 -2 24
-8 37 -18 37 -9 0 -14 12 -15 38 0 20 -3 48 -5 62 -3 14 -2 62 1 108 5 61 10
82 21 82 9 0 14 12 14 35 0 24 5 35 15 35 8 0 17 14 21 35 4 20 12 35 20 35 8
0 18 9 22 19 7 20 8 21 42 21 11 0 20 7 20 15 0 8 9 15 20 15 13 0 20 -7 20
-20 0 -11 9 -28 20 -37 12 -11 20 -30 20 -49 0 -23 5 -33 20 -37 11 -3 20 -12
20 -21 0 -9 7 -16 15 -16 8 0 15 -7 15 -15 0 -8 9 -15 20 -15 13 0 20 -7 20
-20 0 -16 7 -20 35 -20 23 0 35 -5 35 -14 0 -16 30 -26 78 -26 22 0 32 -5 32
-15 0 -13 21 -15 125 -15 104 0 125 2 125 15 0 11 11 15 41 15 38 0 41 -2 35
-22 -3 -13 -6 -26 -6 -30 0 -4 -7 -5 -15 -2 -9 4 -16 -3 -20 -19 -4 -14 -13
-28 -21 -31 -8 -3 -14 -19 -14 -36 0 -19 -5 -30 -14 -30 -14 0 -26 -42 -26
-91 0 -19 -5 -29 -15 -29 -12 0 -15 -13 -15 -56 0 -36 4 -53 11 -49 6 4 13 -2
16 -14 5 -19 12 -21 93 -21 87 0 88 0 95 27 3 15 6 120 5 233 -3 409 -1 470
15 470 8 0 15 7 15 15 0 12 -17 15 -95 15 -80 0 -93 -2 -89 -15 4 -8 15 -15
25 -15 12 0 19 -7 19 -20 0 -11 7 -20 15 -20 12 0 15 -17 15 -95 0 -78 -3 -95
-15 -95 -8 0 -15 -7 -15 -15 0 -8 -9 -15 -20 -15 -13 0 -20 -7 -20 -20 0 -19
-7 -20 -110 -20 -103 0 -110 1 -110 20 0 17 -7 20 -50 20 -43 0 -50 3 -50 20
0 13 -7 20 -20 20 -11 0 -20 6 -20 14 0 7 -9 16 -20 19 -15 4 -20 14 -20 36 0
20 -5 31 -14 31 -8 0 -17 15 -20 34 -4 19 -13 37 -21 40 -8 3 -15 15 -15 26 0
18 6 20 68 20 80 0 112 -8 112 -26 0 -8 9 -14 20 -14 13 0 20 -7 20 -20 0 -11
6 -20 14 -20 15 0 26 -21 26 -51 0 -10 7 -19 15 -19 12 0 15 13 15 60 0 33 -3
59 -7 59 -20 -3 -26 2 -13 11 13 8 12 10 -5 11 -11 1 -24 2 -30 4 -5 1 -20 3
-32 3 -13 1 -23 9 -23 17 0 11 -19 15 -87 17 l-88 3 -3 93 c-3 80 -1 92 13 92
9 0 14 4 10 9 -3 5 -1 12 5 16 5 3 10 22 10 41 0 24 5 34 15 34 8 0 15 9 15
20 0 13 7 20 19 20 11 0 21 9 24 21 3 12 10 18 17 14 7 -4 14 2 17 14 4 16 13
21 39 21 28 0 34 4 34 20 0 17 -6 20 -36 18 -26 -2 -38 -8 -42 -20z"/>
<path d="M992 1913 c2 -13 14 -19 41 -21 22 -2 37 -8 37 -16 0 -8 9 -16 20
-19 11 -3 20 -12 20 -21 0 -9 7 -16 15 -16 8 0 15 -9 15 -20 0 -11 7 -20 15
-20 12 0 15 13 15 55 l0 55 -35 0 c-23 0 -35 5 -35 14 0 16 -30 26 -78 26 -27
0 -33 -4 -30 -17z"/>
<path d="M1361 1258 c-1 -11 -9 -18 -21 -18 -19 0 -20 -7 -20 -255 l0 -255
259 0 c186 0 262 3 267 12 4 7 3 8 -4 4 -7 -4 -12 -2 -12 3 0 6 7 11 15 11 12
0 15 15 15 75 0 60 -3 75 -15 75 -10 0 -15 10 -15 33 0 47 -10 77 -26 77 -8 0
-14 9 -14 20 0 11 -6 20 -14 20 -8 0 -17 14 -21 30 -4 17 -13 30 -21 30 -8 0
-14 8 -14 19 0 14 -10 21 -35 25 -21 4 -35 13 -35 21 0 8 -9 15 -20 15 -11 0
-20 4 -20 8 0 15 -50 32 -95 32 -33 0 -45 4 -45 15 0 11 -12 15 -45 15 -36 0
-45 -4 -46 -17 0 -15 -2 -15 -9 2 -7 17 -9 17 -9 3z"/>
<path d="M1069 656 c-3 -3 -19 -6 -36 -8 -22 -1 -29 -6 -26 -16 5 -11 7 -11
14 0 6 9 9 6 9 -12 0 -41 11 -70 26 -70 8 0 14 -9 14 -20 0 -13 7 -20 20 -20
11 0 20 -6 20 -14 0 -13 28 -26 58 -26 9 0 12 25 12 90 0 79 -2 90 -17 90 -10
1 -34 3 -53 6 -20 3 -38 3 -41 0z"/>
<path d="M1326 652 c-3 -3 -6 -67 -6 -143 l0 -137 66 -4 c85 -5 124 1 124 18
0 10 14 14 50 14 37 0 50 4 50 15 0 8 14 17 35 21 20 3 35 12 35 20 0 8 9 14
20 14 13 0 20 7 20 20 0 11 7 20 15 20 8 0 15 7 15 16 0 9 9 18 20 21 14 4 20
14 20 35 0 21 6 31 20 35 31 8 24 30 -12 37 -42 7 -465 6 -472 -2z"/>
</g>
</svg>
