<svg width="40" height="40" viewBox="0 0 40 40" fill="none" xmlns="http://www.w3.org/2000/svg">
<path d="M2.76975 26.9476L0 21.0081L18.2449 0L21.0146 5.93945L2.76975 26.9476Z" fill="#3DD9B2"/>
<path d="M27.3483 7.97915L21.0155 5.94011L18.2305 0.0175781L23.9594 2.5558L27.3483 7.97915Z" fill="#19AA86"/>
<path d="M21.7524 39.9954L15.4036 37.9779L33.6522 16.9736L39.9996 18.9911L21.7524 39.9954Z" fill="#3DD9B2"/>
<path d="M39.9808 19.0104L33.648 16.9714L30.8622 11.0488L36.5911 13.5871L39.9808 19.0104Z" fill="#19AA86"/>
<path d="M12.6311 32.0379L15.4016 37.9774L33.6495 16.9731L30.879 11.0337L22.8 20.3336L19.2838 17.2608L27.3636 7.96086L21.0155 5.94336L2.76831 26.9476L9.11645 28.9651L15.417 21.7135L18.9339 24.7863L12.6311 32.0379Z" fill="#1C4B40"/>
<path d="M20.7881 15.5419L18.8616 17.75L22.3722 20.8283L24.2988 18.6202L20.7881 15.5419Z" fill="#19AA86"/>
</svg>
