<?xml version="1.0" standalone="no"?>
<!DOCTYPE svg PUBLIC "-//W3C//DTD SVG 20010904//EN"
 "http://www.w3.org/TR/2001/REC-SVG-20010904/DTD/svg10.dtd">
<svg version="1.0" xmlns="http://www.w3.org/2000/svg"
 width="624.000000pt" height="97.000000pt" viewBox="0 0 624.000000 97.000000"
 preserveAspectRatio="xMidYMid meet">

<g transform="translate(0.000000,97.000000) scale(0.100000,-0.100000)"
fill="#000000" stroke="none">
<path d="M3144 957 c-2 -7 -4 -198 -2 -424 l3 -409 28 -43 c45 -68 94 -85 231
-79 138 6 206 30 270 94 71 70 91 133 91 284 0 122 -1 127 -34 194 -37 75 -85
118 -169 148 -58 21 -146 23 -200 4 l-41 -15 -3 127 -3 127 -83 3 c-63 2 -84
0 -88 -11z m392 -407 c41 -39 54 -80 54 -178 0 -71 -4 -96 -22 -132 -32 -63
-72 -81 -168 -78 l-75 3 -3 202 c-3 232 -13 213 110 210 66 -2 80 -5 104 -27z"/>
<path d="M3870 494 l0 -476 48 38 c26 21 66 54 90 73 l42 35 -2 401 -3 400
-87 3 -88 3 0 -477z"/>
<path d="M5567 964 c-4 -4 -7 -218 -7 -476 l0 -468 90 0 90 0 0 144 0 144 26
17 c15 9 29 13 33 8 3 -5 55 -78 116 -161 l110 -152 108 0 c86 0 107 3 99 13
-5 6 -77 105 -160 219 l-152 208 155 127 c84 71 154 131 154 136 1 4 -51 7
-114 7 l-115 0 -97 -82 c-54 -44 -113 -95 -130 -111 l-33 -31 -2 230 -3 229
-80 3 c-45 1 -84 0 -88 -4z"/>
<path d="M1650 875 l0 -85 85 0 85 0 0 85 0 85 -85 0 -85 0 0 -85z"/>
<path d="M136 721 c-123 -50 -169 -172 -109 -288 25 -48 63 -74 166 -112 132
-49 152 -61 155 -98 3 -27 -2 -34 -30 -49 -42 -22 -162 -21 -233 0 -78 24 -76
26 -73 -61 l3 -77 45 -14 c72 -23 234 -21 300 3 138 50 196 188 134 313 -30
60 -71 88 -182 126 -114 39 -142 55 -142 82 0 19 8 25 41 34 51 14 162 1 235
-27 13 -5 14 7 12 73 l-3 78 -45 14 c-25 7 -85 15 -135 18 -74 4 -99 1 -139
-15z"/>
<path d="M2058 725 c-132 -43 -183 -181 -113 -301 27 -46 74 -73 211 -124 45
-17 89 -39 99 -49 21 -24 13 -56 -21 -77 -32 -21 -158 -21 -237 0 -32 9 -62
16 -68 16 -6 0 -9 -31 -7 -77 l3 -78 50 -14 c77 -20 230 -20 291 2 114 39 171
125 161 238 -10 109 -59 155 -217 208 -115 38 -152 70 -114 102 29 24 178 14
260 -18 13 -5 14 7 12 73 l-3 78 -45 14 c-72 21 -207 25 -262 7z"/>
<path d="M2681 729 c-77 -24 -137 -86 -155 -161 -3 -15 -1 -51 5 -80 18 -83
67 -125 202 -174 60 -21 117 -47 128 -57 26 -24 21 -55 -13 -80 -34 -25 -143
-27 -234 -3 -34 9 -67 16 -73 16 -8 0 -11 -24 -9 -77 l3 -78 50 -13 c80 -22
230 -20 294 2 66 23 136 84 152 133 18 55 14 135 -10 181 -29 57 -70 85 -195
131 -115 42 -142 60 -133 85 15 37 129 42 237 10 24 -7 48 -10 53 -5 4 4 7 39
5 76 l-3 69 -50 13 c-67 18 -212 25 -254 12z"/>
<path d="M4394 731 c-101 -25 -186 -100 -226 -200 -29 -74 -32 -231 -5 -306
29 -83 83 -145 161 -185 63 -32 76 -35 155 -35 102 0 173 28 236 90 140 141
130 448 -20 570 -77 64 -199 90 -301 66z m156 -166 c114 -59 113 -321 -1 -389
-37 -22 -107 -20 -146 4 -54 32 -78 91 -78 190 0 99 24 158 78 190 38 24 106
26 147 5z"/>
<path d="M5143 726 c-201 -66 -296 -311 -203 -523 29 -65 101 -136 173 -169
54 -25 74 -28 152 -28 64 0 106 6 145 20 l55 20 3 78 c3 78 3 79 -20 71 -96
-30 -130 -36 -188 -33 -119 6 -170 71 -170 214 0 96 23 154 72 184 41 25 162
27 223 4 89 -35 86 -37 83 52 l-3 79 -55 19 c-72 24 -211 30 -267 12z"/>
<path d="M567 723 c-2 -4 40 -154 94 -332 104 -345 113 -362 179 -382 44 -13
100 6 124 43 9 13 31 88 50 167 19 78 37 145 39 147 2 3 22 -64 43 -148 42
-169 60 -201 127 -213 44 -9 103 17 121 54 12 23 206 651 206 665 0 3 -36 6
-80 6 l-79 0 -11 -37 c-6 -21 -37 -130 -69 -243 -33 -113 -61 -198 -65 -190
-3 8 -28 101 -56 205 -28 105 -55 207 -61 228 l-10 38 -62 -3 -62 -3 -60 -232
c-33 -127 -61 -230 -63 -228 -2 2 -34 106 -71 232 l-66 228 -82 3 c-45 1 -83
-1 -86 -5z"/>
<path d="M1733 632 l-82 -67 0 -272 -1 -273 85 0 85 0 0 340 c0 187 -1 340 -2
340 -2 0 -40 -31 -85 -68z"/>
</g>
</svg>
