<svg width="47" height="46" viewBox="0 0 47 46" fill="none" xmlns="http://www.w3.org/2000/svg">
<path d="M23.9875 34.3996C24.549 33.1611 25.1301 32.1183 25.7327 31.277C26.3882 30.3574 27.0456 29.4418 27.7069 28.5281C28.6558 27.2309 29.2486 25.8124 29.4873 24.2746C29.5871 23.6348 29.6262 22.8953 29.6047 22.0559C29.5753 20.8683 29.3112 19.6983 28.8299 18.6164C28.1451 17.057 27.1003 15.4273 26.3745 14.2103C26.1906 13.9031 25.899 13.3221 25.5019 12.4671C25.1771 11.7686 24.9384 11.164 24.7897 10.6573C23.7977 7.30774 24.103 3.86232 25.4725 0.6419C25.5743 0.399292 25.6975 0.199728 25.8364 0.043207C25.8638 0.0138593 25.901 -0.00179279 25.9382 0.00016372C25.9773 0.00407675 26.0125 0.0216854 26.034 0.0529896C26.8734 1.22494 27.8399 2.29711 28.9179 3.24993C29.7945 4.02862 30.5184 4.63319 31.0877 5.06558C32.3008 5.98514 33.3768 6.76579 34.3688 7.68339C35.3686 8.60295 36.2862 9.61251 37.1099 10.6964C37.9414 11.7999 38.589 12.8623 39.0566 13.8816C39.5751 15.0144 39.9253 16.0631 40.1072 17.0277C40.3264 18.1918 40.4359 19.1799 40.4379 19.9938C40.4379 20.567 40.3772 21.2459 40.2559 22.0325C39.9879 23.764 39.2053 25.2059 38.1605 26.5657C37.8533 26.9687 37.4542 27.3503 36.967 27.7142C36.2451 28.2561 35.5623 28.6944 34.9147 29.0329C34.6349 29.1796 34.1692 29.3635 33.5216 29.5826C32.3047 29.9935 30.716 30.3711 29.3229 30.8289C27.9749 31.2711 26.7501 31.9911 25.6525 32.8265C25.1125 33.2374 24.5667 33.7676 24.0149 34.4172C24.011 34.4211 24.0051 34.425 23.9993 34.4231C23.9934 34.4211 23.9875 34.4172 23.9856 34.4113C23.9856 34.4074 23.9856 34.4035 23.9875 34.3996ZM22.2795 34.4231C22.0251 34.2039 21.8667 34.0631 21.808 33.9965C20.4815 32.5859 18.8419 31.6115 17.0889 30.917C15.9639 30.4729 14.6863 30.2185 13.5006 29.8683C12.6534 29.6198 11.8317 29.2931 11.0432 28.8959C10.1256 28.4342 9.40955 27.945 8.89694 27.4285C7.97347 26.5051 7.25152 25.6168 6.72326 24.3979C6.24 23.2964 5.94848 22.1185 5.86043 20.9172C5.70978 18.8042 6.13043 16.8144 6.8876 14.7405C6.99521 14.4451 7.14978 14.1027 7.3513 13.7114C7.44717 13.5275 7.61543 13.191 7.85999 12.6999C8.08695 12.2382 8.40781 11.7236 8.81868 11.1562C9.85955 9.71621 11.0589 8.39948 12.3971 7.23535C13.7511 6.05362 15.1969 4.92666 16.3884 4.0071C17.7756 2.9408 18.9867 1.63581 20.0589 0.246684C20.1312 0.150815 20.231 0.0705982 20.3562 0.00798976C20.3699 0.000163706 20.3875 -0.00179279 20.4032 0.00212024C20.4188 0.00798978 20.4325 0.0177723 20.4423 0.0314679C20.6321 0.317119 20.7632 0.546031 20.8356 0.718204C21.2504 1.68472 21.5732 2.76276 21.806 3.95232C22.1641 5.78949 22.1347 7.64426 21.718 9.51469C21.3893 10.984 20.8865 12.334 20.2056 13.5647C19.4778 14.8814 18.8712 15.9281 18.388 16.7049C17.7795 17.6773 17.3902 18.589 17.0439 19.5203C16.9128 19.8783 16.8208 20.2501 16.77 20.6296C16.4432 22.8953 16.5802 24.9809 17.5467 26.9179C18.0143 27.857 18.7793 28.935 19.5599 29.9642C20.1371 30.7252 20.7573 31.6742 21.2425 32.4352C21.6417 33.0691 21.9899 33.7324 22.2834 34.4211L22.2795 34.4231Z" fill="#F27B39"/>
<path d="M6.77383 7.98268C6.7797 7.97876 6.78557 7.97681 6.79144 7.97681C6.79731 7.97681 6.80318 7.98072 6.8071 7.98463C6.81688 7.99441 6.81688 8.01007 6.8071 8.01985C6.62905 8.23702 6.48036 8.39159 6.35905 8.48746L6.27688 8.57159C6.02253 8.87876 5.72123 9.20941 5.50601 9.52636C5.15189 10.0429 4.9171 10.4146 4.79776 10.6357C4.57863 11.0446 4.3595 11.4535 4.14232 11.8624C3.1132 13.862 2.56929 16.0416 2.51059 18.4031C2.50668 18.5968 2.5419 19.2678 2.62016 20.4183C2.64951 20.8702 2.74537 21.4494 2.9019 22.1557C3.66689 25.56 5.76036 28.4185 8.6697 30.2948C8.92013 30.4571 9.51295 30.7545 10.4482 31.1928C10.8747 31.3904 11.7062 31.6663 12.9369 32.0184C13.0875 32.0615 13.9738 32.2806 15.5958 32.6739C16.8029 32.9674 17.8849 33.4037 18.8436 33.9847C19.4227 34.335 19.7279 34.5208 19.7631 34.5443C19.7905 34.5639 19.816 34.5873 19.8375 34.6108C20.0781 34.871 20.2542 35.055 20.3677 35.1606C21.3968 36.133 22.0757 37.2952 22.4025 38.6491C22.5179 39.1284 22.5883 39.8504 22.6138 40.8149C22.6627 42.701 22.6881 43.6656 22.6881 43.7086C22.6979 44.7103 22.694 45.3756 22.6803 45.7043C22.6764 45.7786 22.6177 45.8373 22.5433 45.8393C21.8018 45.8588 21.0818 45.7727 20.1975 45.6749C17.9925 45.4303 15.9362 44.9275 14.0286 44.1684C11.7023 43.243 9.62252 41.9712 7.55057 40.2143C7.51535 40.1849 7.4684 40.1673 7.42144 40.1673C7.35883 40.1673 7.32361 40.1301 7.31775 40.0578C7.31383 39.9971 7.28448 39.9404 7.23753 39.9012C6.59383 39.3475 6.05579 38.8095 5.62536 38.2832C5.59993 38.2519 5.5608 38.2343 5.52167 38.2362C5.44341 38.2421 5.39841 38.203 5.3808 38.1208C5.36515 38.0523 5.33384 37.9878 5.28884 37.933C4.89558 37.4223 4.50819 36.9058 4.13254 36.3834C2.91168 34.693 1.93929 32.8206 1.21342 30.7702C0.730166 29.4124 0.393646 28.0056 0.207777 26.5754C-0.154178 23.7483 -0.0720046 20.7548 0.683209 18.0392C1.38168 15.5192 2.43233 13.234 3.92515 11.1366C4.49841 10.3305 5.27123 9.54397 5.93253 8.75941C6.17123 8.47572 6.56449 8.13724 6.77383 7.98268Z" fill="#92A5A7"/>
<path d="M39.3611 8.02743C39.3572 8.01765 39.3572 8.00787 39.3611 8.00004C39.365 7.99026 39.3709 7.98243 39.3807 7.97852C39.3885 7.97656 39.3944 7.97656 39.4022 7.97852C39.4081 7.98047 39.4139 7.98634 39.4159 7.99221C39.5842 8.18591 39.7466 8.3033 39.8913 8.48134C40.0009 8.61438 40.5076 9.1896 41.4155 10.2089C41.6326 10.4516 41.9242 10.8487 42.2939 11.3985C43.1489 12.6663 43.8748 14.0183 44.4598 15.4348C45.0761 16.9413 45.5457 18.5691 45.7511 20.2146C45.802 20.6254 45.9233 21.3356 45.9644 21.9148C46.0602 23.2198 46.0152 24.6734 45.8294 26.2758C45.6474 27.8606 45.2972 29.3515 44.7807 30.7504C44.5459 31.3784 44.272 32.0573 43.955 32.7891C43.6987 33.3799 43.3289 34.0745 42.8476 34.8727C40.3374 39.0264 36.8705 42.0512 32.4507 43.9471C31.9244 44.174 31.3453 44.3834 30.7172 44.581C29.6979 44.8999 29.1383 45.0877 28.3518 45.2599C27.1681 45.5181 25.7086 45.7079 23.9771 45.8273C23.6562 45.8507 23.4605 45.8449 23.3842 45.8136C23.3549 45.8018 23.3334 45.7725 23.3314 45.7392C23.2962 45.3323 23.349 45.0016 23.351 44.6357C23.3588 42.194 23.3803 40.6366 23.4175 39.9636C23.4664 39.0851 23.6699 38.2243 24.0201 37.4182C24.3468 36.6649 24.8418 35.9527 25.5129 35.2856C26.546 34.2525 27.8079 33.4778 29.1912 33.0258C30.1264 32.7147 31.2142 32.4447 32.3998 32.1728C33.8085 31.8578 35.1761 31.3784 36.4753 30.7445C37.295 30.3395 38.1559 29.7467 39.0579 28.966C41.0202 27.2619 42.4876 24.7889 43.0746 22.2885C43.9628 18.4909 43.507 14.8713 41.7031 11.4298C41.0985 10.2813 40.492 9.35199 39.8816 8.64569C39.6859 8.41873 39.4824 8.23678 39.3611 8.02743Z" fill="#94AA8E"/>
</svg>
