<?xml version="1.0" standalone="no"?>
<!DOCTYPE svg PUBLIC "-//W3C//DTD SVG 20010904//EN"
 "http://www.w3.org/TR/2001/REC-SVG-20010904/DTD/svg10.dtd">
<svg version="1.0" xmlns="http://www.w3.org/2000/svg"
 width="932.000000pt" height="922.000000pt" viewBox="0 0 932.000000 922.000000"
 preserveAspectRatio="xMidYMid meet">

<g transform="translate(0.000000,922.000000) scale(0.100000,-0.100000)"
fill="#000000" stroke="none">
<path d="M0 4610 l0 -4610 4660 0 4660 0 0 4610 0 4610 -4660 0 -4660 0 0
-4610z m4908 3380 c-15 -24 -23 -27 -113 -35 -38 -3 -137 -15 -220 -25 -145
-19 -565 -44 -574 -34 -3 3 0 13 5 22 14 21 82 34 314 61 226 27 235 27 433
29 165 2 167 2 155 -18z m472 -16 c133 -14 230 -33 425 -80 134 -33 128 -30
114 -52 -11 -17 -19 -17 -208 5 -108 13 -305 44 -438 70 -229 45 -241 48 -231
66 9 18 18 19 107 13 53 -4 157 -14 231 -22z m-146 -78 c92 -19 169 -36 171
-38 2 -2 5 -30 6 -63 l4 -60 -50 -8 c-27 -4 -125 -18 -216 -31 l-165 -23 -225
38 c-123 21 -227 39 -231 39 -10 0 -21 121 -12 130 5 5 77 18 159 29 83 11
161 23 175 25 60 11 226 -6 384 -38z m-1376 -17 c-9 -15 -61 -38 -163 -74 -83
-28 -184 -66 -225 -83 -41 -18 -151 -54 -245 -81 -93 -27 -183 -54 -198 -60
-39 -15 -57 -14 -51 3 10 27 308 146 565 224 90 28 193 60 229 71 36 11 73 20
84 20 17 1 17 -1 4 -20z m520 -74 l3 -71 -220 -83 -219 -82 -193 -9 c-107 -5
-210 -12 -230 -15 l-36 -5 -7 67 c-5 49 -3 70 6 79 13 13 264 112 388 153 52
17 105 23 260 30 273 12 244 19 248 -64z m1297 20 c278 -27 297 -32 509 -122
111 -47 204 -88 208 -92 10 -10 13 -106 2 -105 -5 1 -94 12 -199 24 -184 22
-196 25 -385 92 -273 96 -256 87 -264 147 -8 63 -3 73 37 67 18 -3 59 -8 92
-11z m606 -71 c242 -82 589 -247 589 -280 0 -21 -18 -18 -126 26 -54 23 -144
57 -199 77 -55 19 -181 71 -280 115 -99 43 -191 83 -204 89 -19 8 -21 12 -10
25 16 19 33 15 230 -52z m-1581 -90 c227 -35 207 -26 220 -92 7 -32 17 -83 25
-115 12 -56 12 -59 -9 -67 -83 -32 -187 -75 -281 -117 l-110 -49 -238 31
c-176 22 -241 34 -247 45 -12 22 -51 221 -45 230 5 8 224 97 370 151 57 21 70
20 315 -17z m982 -45 c112 -39 211 -73 220 -76 10 -3 19 -13 22 -22 14 -52 38
-182 34 -186 -3 -3 -59 -14 -124 -25 -65 -10 -152 -26 -193 -35 l-74 -15 -176
55 c-97 30 -203 62 -237 71 l-61 16 -16 77 c-32 154 -32 148 0 155 42 8 338
50 385 55 9 0 108 -31 220 -70z m-2342 -53 l0 -75 -122 -77 c-68 -43 -163
-105 -213 -139 -77 -52 -106 -65 -195 -88 -58 -15 -149 -42 -202 -59 -54 -17
-100 -30 -102 -27 -2 2 -7 33 -11 69 l-7 65 109 75 c185 130 301 200 361 221
73 26 353 108 370 109 8 0 12 -21 12 -74z m3455 -110 c113 -45 157 -70 301
-169 220 -152 204 -138 204 -181 0 -20 -3 -36 -6 -36 -3 0 -33 13 -67 28 -34
16 -111 49 -172 73 -60 24 -175 82 -255 130 -80 47 -173 101 -207 120 l-63 34
0 52 0 52 66 -25 c36 -13 126 -48 199 -78z m-3954 56 c-5 -10 -58 -49 -118
-87 -59 -38 -151 -99 -203 -135 -52 -37 -158 -104 -235 -150 -77 -46 -155 -95
-173 -108 -32 -24 -48 -27 -34 -6 8 12 240 185 359 267 75 53 388 235 406 236
4 1 3 -7 -2 -17z m1029 -14 c0 -2 11 -57 25 -123 13 -66 21 -123 17 -126 -4
-4 -97 -67 -207 -141 l-200 -135 -136 -6 c-75 -4 -181 -10 -236 -13 l-100 -7
-21 109 c-12 60 -22 117 -22 126 0 17 193 155 345 248 66 40 74 43 180 51 190
15 355 23 355 17z m2360 -13 c210 -24 229 -29 341 -91 81 -44 278 -157 297
-170 6 -4 35 -155 30 -159 -2 -2 -33 0 -68 5 -36 5 -117 14 -181 19 -114 11
-118 12 -260 80 -79 38 -178 84 -220 103 l-76 35 -16 84 c-10 46 -17 90 -17
97 0 15 7 15 170 -3z m968 -189 c200 -126 512 -374 512 -407 0 -17 -20 -6
-136 79 -60 43 -218 156 -352 251 -217 154 -259 191 -219 191 7 0 94 -51 195
-114z m-947 -125 c107 -48 206 -94 220 -101 22 -10 31 -28 58 -124 17 -62 31
-117 31 -123 0 -6 -21 -14 -47 -18 -27 -3 -107 -20 -179 -36 l-131 -29 -224
81 c-123 45 -229 86 -235 93 -6 6 -26 65 -44 131 -18 66 -35 125 -37 132 -3 7
17 16 54 24 62 13 311 57 329 58 7 1 99 -39 205 -88z m-1996 4 c116 -14 219
-27 230 -30 17 -3 28 -31 63 -157 23 -84 42 -156 42 -160 0 -4 -73 -58 -162
-120 -90 -63 -177 -124 -193 -136 l-31 -22 -154 14 c-85 8 -198 18 -251 22
l-97 7 -36 136 c-21 75 -41 148 -46 163 -6 20 -4 30 10 43 40 36 385 265 400
265 8 0 110 -11 225 -25z m-1875 -93 l0 -66 -172 -175 c-168 -170 -177 -178
-318 -261 -80 -47 -157 -94 -171 -103 l-27 -18 -4 63 c-3 39 -1 69 7 80 6 9
78 88 161 174 125 133 167 169 259 229 164 107 247 155 256 149 5 -3 9 -35 9
-72z m4691 52 c173 -70 278 -119 314 -147 71 -54 70 -54 52 -27 -9 13 -17 42
-17 63 l0 38 68 -48 c188 -132 278 -206 387 -317 107 -110 95 -92 -24 36 -25
26 -42 51 -38 55 11 10 254 -234 341 -342 107 -133 239 -318 239 -335 0 -16
83 -141 89 -135 4 4 153 -245 187 -313 12 -23 19 -48 15 -54 -5 -7 -3 -8 6 -3
10 6 12 4 7 -9 -4 -9 -3 -15 1 -12 11 7 138 -285 157 -359 23 -94 35 -192 34
-295 0 -137 -22 -92 -30 60 l-5 115 -2 -113 c-2 -110 -3 -116 -43 -203 -23
-49 -45 -89 -48 -89 -3 0 -18 29 -34 63 l-27 62 31 105 c33 110 96 243 110
234 12 -7 11 37 -1 56 -8 13 -10 12 -10 -3 0 -22 -48 -117 -59 -117 -4 0 -15
17 -23 38 -15 39 -15 39 23 93 22 29 39 61 39 69 0 10 -27 25 -76 44 -69 26
-77 31 -94 69 -10 23 -17 43 -15 45 4 4 82 -35 117 -59 38 -27 43 -23 17 13
-13 18 -25 26 -27 19 -3 -9 -10 -8 -27 3 -13 9 -54 32 -92 52 -126 68 -198
112 -220 136 -23 24 -67 127 -59 135 7 7 130 -51 182 -87 35 -23 42 -26 34
-10 -5 10 -10 29 -10 42 0 16 -19 42 -56 78 -34 33 -48 43 -36 25 12 -16 24
-42 28 -57 6 -27 5 -27 -107 31 -145 74 -315 180 -356 223 -30 31 -90 174 -78
186 9 10 255 -118 296 -154 40 -36 41 -37 22 -9 -12 17 -25 49 -29 70 l-7 40
94 -86 c52 -47 113 -109 136 -138 42 -50 42 -51 36 -19 -3 18 -20 52 -37 76
-24 35 -31 40 -36 26 -5 -14 -19 -5 -71 46 -99 98 -298 280 -306 280 -4 0 14
-21 40 -48 44 -44 89 -142 66 -142 -5 0 -54 23 -108 50 -54 28 -103 50 -108
50 -19 0 -305 187 -347 227 -43 40 -63 84 -82 183 l-7 30 74 -31 c159 -67 223
-100 271 -141 l51 -43 -25 40 c-24 36 -48 125 -34 125 10 0 251 -204 297 -252
46 -48 47 -48 52 -22 4 21 -5 36 -48 82 -50 54 -53 55 -48 27 7 -34 19 -42
-107 66 -41 35 -120 100 -175 143 -55 44 -109 86 -120 95 -11 9 -8 2 7 -14 24
-26 56 -121 45 -132 -3 -2 -64 23 -136 57 -73 33 -135 60 -138 60 -11 0 -247
133 -305 172 -92 61 -124 100 -137 165 -11 56 -14 93 -8 93 2 0 32 -12 68 -26z
m-4191 -130 l24 -125 -189 -182 c-103 -100 -191 -183 -194 -184 -3 -1 -87 -23
-186 -49 -99 -26 -185 -49 -191 -51 -11 -4 -54 173 -54 222 0 19 44 69 171
199 154 158 176 177 222 190 29 9 117 36 197 60 80 25 152 45 160 46 12 0 21
-29 40 -126z m3958 1 l147 -16 196 -130 196 -130 22 -74 c29 -101 28 -107 -11
-100 -18 3 -91 10 -163 14 l-130 8 -205 109 -205 109 -31 113 -31 112 34 0
c18 0 100 -7 181 -15z m-4909 -122 c-50 -58 -332 -356 -438 -463 -94 -95 -85
-76 33 65 61 74 418 435 429 435 5 0 -6 -17 -24 -37z m1583 -144 c60 -213 64
-186 -33 -276 -46 -43 -131 -123 -189 -179 l-105 -100 -229 -13 c-126 -7 -232
-9 -236 -4 -4 4 -26 78 -49 163 l-43 155 184 181 183 181 200 12 c110 7 214
13 230 15 17 1 34 2 40 1 5 -1 27 -62 47 -136z m2320 52 c79 -27 182 -63 230
-81 l88 -32 49 -151 c26 -84 47 -155 45 -158 -5 -10 -340 -189 -352 -189 -13
0 -473 127 -477 132 -2 2 -89 267 -111 336 -2 7 41 34 109 69 115 58 256 122
269 123 4 0 72 -22 150 -49z m-892 -91 c123 -28 225 -52 226 -53 1 -1 28 -82
60 -180 l58 -178 -24 -16 c-14 -10 -97 -72 -186 -139 l-162 -121 -247 43
c-137 24 -251 47 -255 51 -15 16 -123 360 -118 374 3 8 90 74 193 147 136 96
193 130 209 127 11 -2 122 -27 246 -55z m1903 -52 l207 -103 39 -120 c21 -66
35 -123 31 -128 -7 -9 -262 -88 -300 -93 -15 -3 -111 30 -235 79 l-210 83 -50
146 c-27 81 -47 149 -44 153 12 11 288 82 334 84 11 1 113 -44 228 -101z
m-4863 -95 c1 -5 11 -57 24 -116 l24 -108 -86 -122 c-48 -67 -114 -162 -146
-210 l-60 -87 -158 -85 c-87 -47 -160 -85 -162 -85 -2 0 -13 47 -26 105 l-22
105 122 187 c68 104 128 196 134 206 6 10 72 55 146 101 183 113 209 127 210
109z m5408 -53 l94 -10 148 -101 c200 -136 203 -139 233 -231 l26 -78 -137 0
c-134 0 -138 1 -222 36 -165 70 -239 107 -264 133 -23 24 -96 212 -96 248 0
16 83 17 218 3z m-5929 -349 c-118 -180 -161 -236 -257 -336 -63 -66 -119
-121 -124 -123 -4 -2 -8 20 -8 49 0 58 14 87 153 314 83 134 131 195 277 348
l85 90 8 -63 8 -62 -142 -217z m2471 313 c113 -9 208 -18 212 -21 4 -2 35 -89
69 -194 l60 -190 -78 -71 c-43 -40 -126 -119 -184 -176 l-107 -104 -228 12
c-126 6 -242 15 -259 19 -28 6 -32 14 -87 181 -31 96 -57 184 -57 194 -1 18
122 142 316 318 56 51 64 56 100 52 21 -2 130 -11 243 -20z m-1404 -111 c9
-32 29 -104 46 -161 l30 -103 -48 -62 c-26 -34 -99 -128 -160 -208 l-113 -145
-168 -39 c-92 -21 -180 -40 -194 -42 -25 -5 -26 -2 -67 147 l-41 152 105 149
c57 82 123 175 147 208 l42 59 150 40 c172 46 225 60 242 61 7 1 20 -25 29
-56z m4970 -271 l100 -50 37 -109 c21 -59 37 -113 37 -119 0 -6 -21 -19 -47
-29 -27 -10 -86 -36 -132 -57 l-84 -38 -197 67 -197 68 -52 143 c-29 79 -50
149 -48 156 4 9 212 81 292 100 11 3 135 -53 291 -132z m-1730 27 l112 -31 42
-121 c23 -67 53 -150 66 -184 13 -34 24 -63 24 -66 0 -2 -49 -45 -109 -95 -60
-50 -135 -114 -167 -142 -66 -58 -60 -57 -204 -24 -36 8 -129 27 -208 43 -79
16 -145 31 -148 33 -6 6 -129 356 -137 388 -5 21 1 30 36 57 23 17 104 78 180
136 l138 105 132 -34 c73 -19 182 -48 243 -65z m2325 -190 c74 -50 141 -99
150 -108 19 -18 60 -136 51 -145 -3 -3 -28 -6 -56 -7 -28 0 -73 -4 -99 -8 -47
-8 -56 -5 -200 61 -84 38 -157 75 -164 81 -6 7 -27 58 -46 115 l-36 102 133 0
133 0 134 -91z m-6780 -185 l21 -100 -105 -222 -104 -222 -116 -119 -115 -119
-17 89 -17 89 26 72 c52 139 149 363 171 393 30 40 227 247 231 242 2 -1 13
-48 25 -103z m446 -83 l42 -149 -86 -154 c-47 -84 -102 -182 -122 -218 -26
-45 -47 -70 -71 -83 -26 -13 -200 -96 -261 -125 -4 -2 -23 57 -43 130 l-38
134 110 224 109 225 54 29 c114 62 254 136 259 136 3 0 24 -67 47 -149z m5423
24 l195 -65 54 -146 54 -147 -53 -46 c-30 -25 -88 -76 -130 -113 -41 -38 -80
-68 -86 -68 -13 0 -407 79 -409 82 -5 6 -135 349 -135 356 1 10 291 212 304
212 6 0 99 -29 206 -65z m720 -3 l154 -67 39 -100 38 -100 -22 -15 c-13 -8
-59 -41 -104 -72 -44 -32 -85 -58 -92 -58 -29 0 -319 73 -330 84 -7 6 -35 70
-62 141 l-50 130 126 63 c69 34 131 62 137 62 6 0 81 -31 166 -68z m-6893 -92
c-7 -50 -171 -448 -261 -630 l-76 -154 0 48 c0 119 163 543 298 775 25 43 26
43 34 20 5 -13 7 -40 5 -59z m5540 -74 c7 -6 42 -89 77 -184 48 -126 63 -178
57 -190 -6 -10 -73 -79 -149 -156 l-140 -139 -233 42 c-129 23 -237 45 -241
49 -5 6 -98 244 -150 384 -9 24 -6 30 29 60 21 18 60 54 88 79 27 25 85 75
128 111 l77 66 223 -56 c122 -30 227 -60 234 -66z m1913 49 c102 -61 109 -68
124 -112 9 -26 16 -47 16 -48 0 -2 -34 -14 -76 -29 -84 -30 -60 -32 -254 24
l-65 19 -34 91 c-18 50 -32 93 -30 95 9 8 106 23 158 24 49 1 62 -4 161 -64z
m-4756 35 c94 -6 171 -12 172 -13 10 -10 153 -424 150 -433 -3 -7 -83 -101
-178 -209 l-173 -196 -40 5 c-22 3 -133 11 -247 17 -172 10 -208 15 -213 28
-4 9 -38 105 -76 215 l-70 198 38 47 c67 83 246 295 277 328 l30 33 80 -5 c45
-3 157 -10 250 -15z m-1440 -97 c10 -32 36 -115 58 -185 l40 -127 -136 -213
-137 -213 -162 -27 c-89 -15 -172 -28 -185 -30 -22 -3 -27 7 -77 162 l-53 165
46 85 c25 47 80 146 124 221 l79 135 97 23 c53 12 124 29 157 36 136 33 128
34 149 -32z m6453 -154 c80 -27 86 -46 32 -109 -34 -40 -47 -48 -86 -54 -106
-14 -108 -13 -137 60 -15 37 -25 68 -24 70 12 11 117 54 134 54 11 0 48 -9 81
-21z m-977 -120 c85 -18 160 -37 167 -43 22 -22 105 -240 96 -256 -4 -9 -51
-69 -103 -134 l-95 -119 -145 7 c-235 11 -205 -8 -278 174 -34 87 -62 162 -62
168 0 14 239 234 254 234 6 0 81 -14 166 -31z m984 -126 l19 -42 -39 -112 -39
-111 -89 -45 c-49 -24 -92 -41 -96 -36 -5 4 -24 48 -44 96 l-36 88 67 94 c65
90 70 94 113 101 25 3 61 10 80 14 41 8 41 8 64 -47z m-5791 -25 c14 -40 48
-137 75 -214 l51 -142 -92 -124 c-51 -69 -119 -161 -151 -206 l-59 -82 -217 0
-217 0 -48 138 c-26 75 -58 164 -70 198 l-23 61 92 144 c51 79 115 176 142
214 l50 70 110 6 c60 3 159 6 221 7 l111 2 25 -72z m-1783 -129 l32 -117 -27
-68 c-15 -38 -52 -136 -82 -218 l-54 -150 -102 -97 c-56 -53 -103 -96 -105
-94 -1 1 -16 48 -31 103 l-29 100 64 222 c35 122 64 224 64 227 0 4 50 57 112
120 73 73 114 109 118 101 4 -7 22 -65 40 -129z m3240 96 c118 -14 224 -28
236 -30 17 -4 35 -41 94 -197 40 -106 79 -208 86 -227 11 -34 10 -36 -36 -90
-27 -31 -103 -120 -170 -198 -100 -118 -126 -143 -148 -143 -63 0 -497 51
-506 60 -5 5 -46 109 -92 231 l-83 222 56 66 c31 36 110 128 177 203 105 120
124 137 146 133 14 -2 122 -16 240 -30z m2624 -11 c105 -19 194 -38 198 -42
17 -17 137 -337 129 -346 -120 -160 -246 -316 -255 -316 -24 0 -382 31 -402
35 -17 4 -35 39 -89 172 -38 93 -75 183 -82 200 l-13 33 146 150 c81 82 154
150 162 150 9 0 101 -16 206 -36z m-6190 -106 l17 -83 -34 -120 c-19 -66 -47
-165 -62 -220 -28 -105 -146 -389 -156 -377 -3 4 -12 36 -20 72 l-13 65 -13
-74 c-7 -41 -10 -78 -7 -83 4 -5 12 -34 19 -63 9 -42 9 -85 0 -206 -21 -255
-27 -412 -18 -406 19 12 43 -99 45 -209 l2 -109 6 120 c5 101 11 133 38 203
54 142 51 140 87 32 l32 -95 -23 -175 c-21 -153 -53 -289 -84 -349 -5 -9 -14
6 -26 45 l-19 59 -3 -44 c-2 -29 4 -61 19 -95 12 -28 25 -73 29 -101 l8 -50 1
56 c1 53 30 167 49 197 6 9 19 -14 40 -72 l31 -85 -15 -135 c-8 -74 -23 -159
-33 -188 l-18 -53 -12 38 c-7 20 -16 35 -20 33 -8 -5 -51 149 -51 183 0 12 -9
50 -19 84 -33 103 -63 322 -71 502 -4 102 -8 140 -9 95 -2 -63 -4 -70 -12 -45
-13 43 -20 640 -8 770 15 177 47 382 84 540 19 82 38 151 41 154 6 6 -1 -113
-11 -189 -3 -19 6 10 19 65 12 55 31 118 40 140 46 105 120 255 126 255 4 0
15 -37 24 -82z m756 -142 l54 -165 -101 -208 c-70 -144 -109 -212 -125 -220
-22 -12 -232 -92 -252 -96 -5 -1 -29 60 -54 136 l-44 139 46 121 c25 67 63
165 85 217 l38 95 142 73 c79 39 146 72 150 72 3 0 31 -74 61 -164z m6801 20
c21 -48 39 -97 39 -107 0 -11 -31 -82 -69 -158 -80 -158 -59 -143 -256 -181
-76 -14 -101 -16 -107 -7 -4 7 -33 71 -64 144 l-57 132 39 53 c21 29 67 90
102 136 l64 83 134 -3 135 -3 40 -89z m-6230 -361 c38 -105 68 -195 66 -200
-1 -6 -55 -99 -120 -208 -87 -146 -124 -198 -140 -201 -50 -10 -323 -24 -329
-17 -4 3 -35 82 -68 174 l-60 167 107 210 c105 203 109 210 143 216 74 15 315
52 323 50 5 -1 40 -87 78 -191z m-1408 -258 c22 -78 24 -100 16 -137 -6 -25
-24 -117 -40 -205 -22 -120 -41 -190 -76 -277 -25 -64 -50 -115 -54 -113 -4 3
-14 33 -24 68 -16 60 -16 73 3 278 17 182 24 225 47 280 47 113 88 199 95 199
3 0 18 -42 33 -93z m301 -42 c22 -68 39 -130 39 -138 0 -7 -28 -101 -62 -208
l-63 -194 -89 -72 c-48 -40 -90 -69 -93 -65 -2 4 -17 50 -34 103 l-30 96 24
119 c13 66 33 160 45 209 l21 90 92 93 c50 50 95 92 101 92 5 0 28 -56 49
-125z m1687 8 c6 -16 45 -115 85 -222 l74 -194 -60 -86 c-33 -47 -92 -133
-132 -191 -40 -57 -75 -107 -78 -111 -7 -10 -408 25 -419 37 -16 16 -152 386
-147 399 2 7 57 99 122 204 l117 191 214 0 213 0 11 -27z m-703 -633 l74 -194
-19 -32 c-10 -17 -58 -98 -108 -178 l-90 -147 -165 7 c-91 3 -168 9 -172 13
-3 3 -13 26 -22 51 -8 25 -35 98 -59 162 l-44 117 93 190 93 191 58 1 c32 1
105 5 163 8 58 4 110 7 115 6 6 -1 43 -89 83 -195z m1455 80 c3 -3 17 -36 32
-75 15 -38 57 -140 92 -225 56 -134 63 -158 52 -175 -7 -11 -75 -100 -152
-197 l-139 -178 -42 6 c-145 23 -427 72 -430 75 -2 2 -31 74 -65 160 -33 86
-72 182 -86 213 l-25 57 87 122 c138 195 187 262 195 268 8 5 474 -44 481 -51z
m-2477 -221 c24 -63 43 -123 43 -134 1 -10 -23 -91 -51 -178 l-53 -158 -50
-28 c-27 -15 -60 -34 -73 -42 -28 -18 -30 -15 -68 96 l-28 82 28 169 c16 93
33 175 40 183 22 28 151 131 160 128 6 -2 29 -55 52 -118z m378 -204 c18 -44
45 -116 61 -161 l28 -81 -72 -139 c-40 -76 -78 -145 -83 -152 -8 -9 -42 -12
-125 -10 l-115 3 -44 115 c-24 63 -44 122 -44 131 0 8 24 85 54 170 l54 154
118 27 c66 14 123 25 128 24 4 -1 23 -38 40 -81z m2898 -194 c9 -8 198 -449
198 -462 0 -5 -71 -94 -157 -197 -155 -185 -157 -187 -194 -185 -51 2 -451 72
-467 81 -12 7 -57 105 -159 344 l-45 108 133 167 c73 93 143 179 156 193 l23
26 252 -34 c139 -19 256 -37 260 -41z m-2529 -115 l128 -11 75 -180 c40 -99
74 -183 74 -188 0 -14 -202 -277 -214 -277 -6 0 -79 16 -162 35 l-150 36 -57
144 c-31 79 -57 149 -57 156 0 10 55 114 137 257 28 49 16 47 226 28z m-764
-165 l44 -113 -47 -117 -47 -118 -47 -6 c-26 -3 -53 -7 -60 -9 -8 -2 -26 26
-44 67 l-30 70 17 133 18 132 66 40 c36 22 71 38 76 37 6 -2 30 -54 54 -116z
m2121 -36 c118 -21 220 -42 226 -49 7 -6 53 -107 103 -225 l91 -213 -86 -99
c-47 -54 -113 -128 -147 -164 l-62 -66 -220 53 c-121 29 -225 56 -230 60 -6 4
-48 96 -94 206 l-83 200 132 170 c73 94 138 169 144 167 6 -2 108 -20 226 -40z
m-1817 -124 c26 -5 34 -19 82 -136 30 -71 54 -137 55 -146 0 -11 -116 -178
-142 -205 -2 -1 -52 12 -112 30 l-108 32 -39 94 c-21 52 -38 102 -38 110 -1 8
20 63 46 122 l47 108 90 -1 c50 -1 104 -4 119 -8z m-616 -123 c-3 -8 -6 -5 -6
6 -1 11 2 17 5 13 3 -3 4 -12 1 -19z m101 -65 c16 -40 19 -66 16 -110 -7 -79
-13 -105 -23 -98 -10 6 -56 143 -54 163 0 6 -3 12 -8 12 -5 0 -9 5 -9 11 0 5
4 8 9 5 5 -3 12 11 16 32 13 68 20 67 53 -15z m1540 18 c101 -22 184 -40 186
-42 7 -11 166 -388 166 -395 0 -12 -242 -254 -254 -254 -5 0 -94 27 -196 60
l-186 60 -26 62 c-14 35 -47 112 -73 171 -31 72 -43 112 -37 120 137 177 206
257 220 257 9 -1 99 -18 200 -39z m-1334 -169 c20 -48 36 -93 36 -100 0 -17
-72 -112 -85 -112 -5 0 -28 9 -51 19 -34 16 -44 28 -63 74 -21 52 -22 61 -11
126 13 77 14 78 91 80 l46 1 37 -88z m891 -247 c37 -90 64 -168 61 -174 -12
-19 -187 -161 -199 -161 -22 0 -212 71 -252 95 -36 21 -45 35 -92 147 -29 68
-53 129 -53 135 0 7 34 55 76 106 l76 94 157 -39 158 -40 68 -163z m-1056 85
c0 -9 -6 -4 -14 10 -8 14 -14 34 -14 45 1 15 4 13 14 -10 8 -16 14 -37 14 -45z
m370 -23 l85 -32 48 -110 c26 -60 48 -115 48 -122 0 -11 -119 -83 -139 -83
-17 0 -154 86 -177 112 -12 13 -36 56 -53 96 l-32 72 43 55 c49 63 43 62 177
12z m-302 -34 c37 -22 50 -38 74 -91 16 -35 29 -66 29 -69 0 -3 -18 -3 -41 1
-26 4 -38 3 -34 -4 3 -5 4 -10 1 -10 -8 0 -86 169 -86 186 0 19 5 18 57 -13z
m247 -288 c92 -68 95 -72 131 -153 20 -46 35 -87 33 -92 -2 -4 -33 2 -70 14
-69 23 -100 50 -199 175 -35 45 -79 121 -79 139 0 25 98 -20 184 -83z m466
-87 l144 -73 57 -125 c32 -69 58 -130 58 -136 1 -6 -32 -21 -71 -32 -130 -39
-121 -40 -238 33 -58 37 -120 81 -139 98 -32 31 -125 210 -119 229 4 11 127
74 149 76 8 1 80 -31 159 -70z"/>
<path d="M8690 5543 c0 -5 10 -19 21 -33 l20 -25 -16 33 c-15 30 -25 41 -25
25z"/>
<path d="M602 4480 c0 -14 2 -19 5 -12 2 6 2 18 0 25 -3 6 -5 1 -5 -13z"/>
<path d="M592 4430 c0 -14 2 -19 5 -12 2 6 2 18 0 25 -3 6 -5 1 -5 -13z"/>
<path d="M572 4345 c-7 -32 -10 -60 -8 -62 6 -6 28 95 24 109 -3 7 -10 -14
-16 -47z"/>
<path d="M521 4054 c0 -11 3 -14 6 -6 3 7 2 16 -1 19 -3 4 -6 -2 -5 -13z"/>
<path d="M512 3985 c0 -16 2 -22 5 -12 2 9 2 23 0 30 -3 6 -5 -1 -5 -18z"/>
<path d="M503 3905 c0 -22 2 -30 4 -17 2 12 2 30 0 40 -3 9 -5 -1 -4 -23z"/>
<path d="M652 2610 c0 -19 2 -27 5 -17 2 9 2 25 0 35 -3 9 -5 1 -5 -18z"/>
<path d="M662 2525 c0 -16 2 -22 5 -12 2 9 2 23 0 30 -3 6 -5 -1 -5 -18z"/>
</g>
</svg>
